G04 #@! TF.GenerationSoftware,KiCad,Pcbnew,7.0.7*
G04 #@! TF.CreationDate,2023-09-27T11:51:15+02:00*
G04 #@! TF.ProjectId,heating-controller,68656174-696e-4672-9d63-6f6e74726f6c,rev?*
G04 #@! TF.SameCoordinates,Original*
G04 #@! TF.FileFunction,Copper,L2,Bot*
G04 #@! TF.FilePolarity,Positive*
%FSLAX46Y46*%
G04 Gerber Fmt 4.6, Leading zero omitted, Abs format (unit mm)*
G04 Created by KiCad (PCBNEW 7.0.7) date 2023-09-27 11:51:15*
%MOMM*%
%LPD*%
G01*
G04 APERTURE LIST*
G04 Aperture macros list*
%AMRoundRect*
0 Rectangle with rounded corners*
0 $1 Rounding radius*
0 $2 $3 $4 $5 $6 $7 $8 $9 X,Y pos of 4 corners*
0 Add a 4 corners polygon primitive as box body*
4,1,4,$2,$3,$4,$5,$6,$7,$8,$9,$2,$3,0*
0 Add four circle primitives for the rounded corners*
1,1,$1+$1,$2,$3*
1,1,$1+$1,$4,$5*
1,1,$1+$1,$6,$7*
1,1,$1+$1,$8,$9*
0 Add four rect primitives between the rounded corners*
20,1,$1+$1,$2,$3,$4,$5,0*
20,1,$1+$1,$4,$5,$6,$7,0*
20,1,$1+$1,$6,$7,$8,$9,0*
20,1,$1+$1,$8,$9,$2,$3,0*%
G04 Aperture macros list end*
G04 #@! TA.AperFunction,ComponentPad*
%ADD10R,1.700000X1.700000*%
G04 #@! TD*
G04 #@! TA.AperFunction,ComponentPad*
%ADD11O,1.700000X1.700000*%
G04 #@! TD*
G04 #@! TA.AperFunction,ComponentPad*
%ADD12RoundRect,0.400000X-0.400000X-0.400000X0.400000X-0.400000X0.400000X0.400000X-0.400000X0.400000X0*%
G04 #@! TD*
G04 #@! TA.AperFunction,ComponentPad*
%ADD13C,1.600000*%
G04 #@! TD*
G04 #@! TA.AperFunction,ComponentPad*
%ADD14C,2.000000*%
G04 #@! TD*
G04 #@! TA.AperFunction,ComponentPad*
%ADD15C,1.800000*%
G04 #@! TD*
G04 #@! TA.AperFunction,ComponentPad*
%ADD16R,2.600000X2.600000*%
G04 #@! TD*
G04 #@! TA.AperFunction,ComponentPad*
%ADD17C,2.600000*%
G04 #@! TD*
G04 #@! TA.AperFunction,ComponentPad*
%ADD18C,2.200000*%
G04 #@! TD*
G04 #@! TA.AperFunction,ComponentPad*
%ADD19R,1.800000X1.800000*%
G04 #@! TD*
G04 #@! TA.AperFunction,ComponentPad*
%ADD20C,2.800000*%
G04 #@! TD*
G04 #@! TA.AperFunction,ComponentPad*
%ADD21O,2.800000X2.800000*%
G04 #@! TD*
G04 #@! TA.AperFunction,ComponentPad*
%ADD22C,1.400000*%
G04 #@! TD*
G04 #@! TA.AperFunction,ComponentPad*
%ADD23O,1.400000X1.400000*%
G04 #@! TD*
G04 #@! TA.AperFunction,ComponentPad*
%ADD24R,1.600000X1.600000*%
G04 #@! TD*
G04 #@! TA.AperFunction,ComponentPad*
%ADD25O,1.600000X1.600000*%
G04 #@! TD*
G04 #@! TA.AperFunction,ViaPad*
%ADD26C,0.800000*%
G04 #@! TD*
G04 #@! TA.AperFunction,Conductor*
%ADD27C,1.000000*%
G04 #@! TD*
G04 #@! TA.AperFunction,Conductor*
%ADD28C,2.000000*%
G04 #@! TD*
G04 #@! TA.AperFunction,Conductor*
%ADD29C,0.500000*%
G04 #@! TD*
G04 #@! TA.AperFunction,Conductor*
%ADD30C,0.300000*%
G04 #@! TD*
G04 #@! TA.AperFunction,Conductor*
%ADD31C,1.500000*%
G04 #@! TD*
G04 #@! TA.AperFunction,Conductor*
%ADD32C,0.250000*%
G04 #@! TD*
G04 APERTURE END LIST*
D10*
X87850000Y-44650000D03*
D11*
X87850000Y-47190000D03*
D12*
X38481000Y-49945000D03*
D13*
X38481000Y-55025000D03*
D14*
X58801000Y-70265000D03*
X58801000Y-60105000D03*
X58801000Y-49945000D03*
D13*
X67978200Y-59241400D03*
X67978200Y-64241400D03*
D15*
X44448600Y-79656400D03*
X36948600Y-75656400D03*
D10*
X46830000Y-35700000D03*
D11*
X49370000Y-35700000D03*
X51910000Y-35700000D03*
X54450000Y-35700000D03*
X56990000Y-35700000D03*
X59530000Y-35700000D03*
X62070000Y-35700000D03*
X64610000Y-35700000D03*
X67150000Y-35700000D03*
X69690000Y-35700000D03*
X72230000Y-35700000D03*
X74770000Y-35700000D03*
D16*
X25720000Y-100550000D03*
D17*
X30800000Y-100550000D03*
X35880000Y-100550000D03*
X40960000Y-100550000D03*
X46040000Y-100550000D03*
X51120000Y-100550000D03*
X56200000Y-100550000D03*
D18*
X62364800Y-83500000D03*
X54744800Y-91120000D03*
X54744800Y-83500000D03*
D19*
X72524800Y-83500000D03*
D15*
X72524800Y-91120000D03*
D10*
X86490000Y-63435000D03*
D11*
X86490000Y-60895000D03*
D16*
X80750000Y-100550000D03*
D17*
X85830000Y-100550000D03*
X90910000Y-100550000D03*
X95990000Y-100550000D03*
D14*
X42200000Y-90000000D03*
X42200000Y-84920000D03*
X25306200Y-84641400D03*
X25306200Y-79561400D03*
D20*
X29150000Y-65100000D03*
D21*
X29150000Y-49860000D03*
D15*
X24121600Y-70805000D03*
X31621600Y-74805000D03*
D22*
X51950800Y-78062800D03*
D23*
X57030800Y-78062800D03*
D24*
X62466400Y-74786200D03*
D25*
X62466400Y-77326200D03*
X62466400Y-79866200D03*
X70086400Y-79866200D03*
X70086400Y-77326200D03*
X70086400Y-74786200D03*
D22*
X48902800Y-74608400D03*
D23*
X53982800Y-74608400D03*
D26*
X62558000Y-49995800D03*
X74800000Y-48600000D03*
X66225600Y-49995800D03*
X97500000Y-78550000D03*
X83410000Y-77670000D03*
X78150000Y-74100000D03*
X87070000Y-78460000D03*
X93600000Y-77700000D03*
X66809800Y-54288400D03*
X80350000Y-45600000D03*
X82150000Y-85100000D03*
X75115600Y-50900000D03*
X75115600Y-61171800D03*
X78150000Y-61832200D03*
X78150000Y-52100000D03*
X90805000Y-67945000D03*
X94615000Y-67945000D03*
X92075000Y-69215000D03*
X95885000Y-69215000D03*
X79770000Y-81600000D03*
X81320000Y-83400000D03*
X66675000Y-40640000D03*
X64770000Y-40640000D03*
D27*
X62800000Y-48600000D02*
X62558000Y-48842000D01*
X62558000Y-48842000D02*
X62558000Y-49995800D01*
X62800000Y-48600000D02*
X74800000Y-48600000D01*
D28*
X31621600Y-70628400D02*
X38524200Y-63725800D01*
X31621600Y-74805000D02*
X31621600Y-70628400D01*
X31621600Y-74805000D02*
X31621600Y-90178400D01*
X38524200Y-63725800D02*
X38524200Y-55030000D01*
X30800000Y-91000000D02*
X30800000Y-100550000D01*
X31621600Y-90178400D02*
X30800000Y-91000000D01*
D29*
X44448600Y-82671400D02*
X44448600Y-79656400D01*
X44448600Y-79656400D02*
X50357200Y-79656400D01*
X50357200Y-79656400D02*
X51950800Y-78062800D01*
X42200000Y-84920000D02*
X44448600Y-82671400D01*
D28*
X25306200Y-100136200D02*
X25720000Y-100550000D01*
X25306200Y-84641400D02*
X25306200Y-100136200D01*
D29*
X40960000Y-100550000D02*
X40960000Y-91240000D01*
X40960000Y-91240000D02*
X42200000Y-90000000D01*
D28*
X26150000Y-65100000D02*
X29150000Y-65100000D01*
X24150000Y-70776600D02*
X24150000Y-67100000D01*
X24150000Y-67100000D02*
X26150000Y-65100000D01*
X24121600Y-78376800D02*
X25306200Y-79561400D01*
X24121600Y-70805000D02*
X24121600Y-78376800D01*
X24121600Y-70805000D02*
X24150000Y-70776600D01*
D29*
X35880000Y-76725000D02*
X36948600Y-75656400D01*
X37996600Y-74608400D02*
X36948600Y-75656400D01*
X48902800Y-74608400D02*
X37996600Y-74608400D01*
X35880000Y-100550000D02*
X35880000Y-76725000D01*
X75115600Y-61171800D02*
X75115600Y-50900000D01*
X78150000Y-61832200D02*
X78150000Y-52100000D01*
D30*
X94615000Y-67945000D02*
X90805000Y-67945000D01*
X92075000Y-69215000D02*
X95885000Y-69215000D01*
D31*
X51120000Y-85880000D02*
X53500000Y-83500000D01*
X51120000Y-100550000D02*
X51120000Y-85880000D01*
X53500000Y-83500000D02*
X54744800Y-83500000D01*
X56200000Y-100550000D02*
X56200000Y-92575200D01*
X56200000Y-92575200D02*
X54744800Y-91120000D01*
D29*
X62466400Y-77326200D02*
X57767400Y-77326200D01*
X57767400Y-77326200D02*
X57030800Y-78062800D01*
D28*
X29877800Y-49132200D02*
X29150000Y-49860000D01*
X37706400Y-49132200D02*
X29877800Y-49132200D01*
X38524200Y-49950000D02*
X37706400Y-49132200D01*
D29*
X53982800Y-74608400D02*
X62288600Y-74608400D01*
D32*
X62288600Y-74608400D02*
X62466400Y-74786200D01*
D29*
X79770000Y-81810000D02*
X79770000Y-81850000D01*
X79770000Y-81600000D02*
X79770000Y-81810000D01*
X79770000Y-81850000D02*
X81320000Y-83400000D01*
D30*
X64610000Y-35700000D02*
X64610000Y-38575000D01*
X64610000Y-38575000D02*
X66675000Y-40640000D01*
X62070000Y-35700000D02*
X62070000Y-37940000D01*
X62070000Y-37940000D02*
X64770000Y-40640000D01*
G04 #@! TA.AperFunction,Conductor*
G36*
X101631621Y-20467002D02*
G01*
X101678114Y-20520658D01*
X101689500Y-20573000D01*
X101689500Y-105863500D01*
X101669498Y-105931621D01*
X101615842Y-105978114D01*
X101563500Y-105989500D01*
X69126000Y-105989500D01*
X69057879Y-105969498D01*
X69011386Y-105915842D01*
X69000000Y-105863500D01*
X69000000Y-101869748D01*
X79249500Y-101869748D01*
X79261133Y-101928231D01*
X79305448Y-101994552D01*
X79371769Y-102038867D01*
X79430252Y-102050500D01*
X79430253Y-102050500D01*
X82069747Y-102050500D01*
X82069748Y-102050500D01*
X82128231Y-102038867D01*
X82194552Y-101994552D01*
X82238867Y-101928231D01*
X82250500Y-101869748D01*
X82250500Y-100550000D01*
X89404357Y-100550000D01*
X89412833Y-100652296D01*
X89424893Y-100797828D01*
X89485935Y-101038877D01*
X89485938Y-101038884D01*
X89585826Y-101266606D01*
X89721835Y-101474785D01*
X89890249Y-101657732D01*
X89890254Y-101657736D01*
X89890256Y-101657738D01*
X90086490Y-101810473D01*
X90086491Y-101810474D01*
X90305190Y-101928828D01*
X90305192Y-101928829D01*
X90428677Y-101971221D01*
X90540386Y-102009571D01*
X90785665Y-102050500D01*
X90785669Y-102050500D01*
X91034331Y-102050500D01*
X91034335Y-102050500D01*
X91279614Y-102009571D01*
X91514810Y-101928828D01*
X91733509Y-101810474D01*
X91929744Y-101657738D01*
X92098164Y-101474785D01*
X92234173Y-101266607D01*
X92334063Y-101038881D01*
X92395108Y-100797821D01*
X92415643Y-100550000D01*
X92395108Y-100302179D01*
X92334063Y-100061119D01*
X92234173Y-99833393D01*
X92110500Y-99644096D01*
X92098164Y-99625214D01*
X91929750Y-99442267D01*
X91733509Y-99289526D01*
X91733508Y-99289525D01*
X91514809Y-99171171D01*
X91514807Y-99171170D01*
X91279618Y-99090430D01*
X91279609Y-99090428D01*
X91230836Y-99082289D01*
X91034335Y-99049500D01*
X90785665Y-99049500D01*
X90621953Y-99076818D01*
X90540390Y-99090428D01*
X90540381Y-99090430D01*
X90305192Y-99171170D01*
X90305190Y-99171171D01*
X90086491Y-99289525D01*
X90086490Y-99289526D01*
X89890249Y-99442267D01*
X89721835Y-99625214D01*
X89585826Y-99833393D01*
X89485938Y-100061115D01*
X89485935Y-100061122D01*
X89424893Y-100302171D01*
X89424892Y-100302177D01*
X89424892Y-100302179D01*
X89404357Y-100550000D01*
X82250500Y-100550000D01*
X82250500Y-99230252D01*
X82238867Y-99171769D01*
X82194552Y-99105448D01*
X82128231Y-99061133D01*
X82128228Y-99061132D01*
X82069750Y-99049500D01*
X82069748Y-99049500D01*
X79430252Y-99049500D01*
X79430249Y-99049500D01*
X79371771Y-99061132D01*
X79371768Y-99061133D01*
X79305448Y-99105448D01*
X79261133Y-99171768D01*
X79261132Y-99171771D01*
X79249500Y-99230249D01*
X79249500Y-99230252D01*
X79249500Y-101869748D01*
X69000000Y-101869748D01*
X69000000Y-91120000D01*
X71419585Y-91120000D01*
X71438403Y-91323084D01*
X71494216Y-91519245D01*
X71494217Y-91519247D01*
X71494218Y-91519250D01*
X71585127Y-91701821D01*
X71585128Y-91701822D01*
X71585129Y-91701824D01*
X71708034Y-91864578D01*
X71858759Y-92001981D01*
X71858760Y-92001982D01*
X72032151Y-92109341D01*
X72032154Y-92109342D01*
X72032163Y-92109348D01*
X72222344Y-92183024D01*
X72422824Y-92220500D01*
X72422826Y-92220500D01*
X72626774Y-92220500D01*
X72626776Y-92220500D01*
X72827256Y-92183024D01*
X73017437Y-92109348D01*
X73190841Y-92001981D01*
X73341564Y-91864579D01*
X73464473Y-91701821D01*
X73555382Y-91519250D01*
X73611197Y-91323083D01*
X73630015Y-91120000D01*
X73611197Y-90916917D01*
X73555382Y-90720750D01*
X73464473Y-90538179D01*
X73445470Y-90513015D01*
X73341565Y-90375421D01*
X73190840Y-90238018D01*
X73190839Y-90238017D01*
X73017448Y-90130658D01*
X73017441Y-90130654D01*
X73017437Y-90130652D01*
X72900932Y-90085518D01*
X72827257Y-90056976D01*
X72760429Y-90044484D01*
X72626776Y-90019500D01*
X72422824Y-90019500D01*
X72322583Y-90038238D01*
X72222342Y-90056976D01*
X72074990Y-90114060D01*
X72032163Y-90130652D01*
X72032162Y-90130652D01*
X72032161Y-90130653D01*
X72032151Y-90130658D01*
X71858760Y-90238017D01*
X71858759Y-90238018D01*
X71708034Y-90375421D01*
X71585129Y-90538175D01*
X71494216Y-90720754D01*
X71438403Y-90916915D01*
X71419585Y-91120000D01*
X69000000Y-91120000D01*
X69000000Y-87714800D01*
X92884494Y-87714800D01*
X92904479Y-87943234D01*
X92961445Y-88155835D01*
X92963829Y-88164730D01*
X93060738Y-88372553D01*
X93192264Y-88560391D01*
X93354409Y-88722536D01*
X93542247Y-88854062D01*
X93750070Y-88950971D01*
X93971565Y-89010321D01*
X94200000Y-89030306D01*
X94428435Y-89010321D01*
X94649930Y-88950971D01*
X94857753Y-88854062D01*
X95045591Y-88722536D01*
X95207736Y-88560391D01*
X95339262Y-88372553D01*
X95436171Y-88164730D01*
X95495521Y-87943235D01*
X95515506Y-87714800D01*
X95495521Y-87486365D01*
X95436171Y-87264870D01*
X95339262Y-87057047D01*
X95207736Y-86869209D01*
X95045591Y-86707064D01*
X94857753Y-86575538D01*
X94702336Y-86503066D01*
X94649933Y-86478630D01*
X94649927Y-86478628D01*
X94556315Y-86453544D01*
X94428435Y-86419279D01*
X94200000Y-86399294D01*
X93971565Y-86419279D01*
X93750072Y-86478628D01*
X93750066Y-86478630D01*
X93542246Y-86575538D01*
X93354412Y-86707061D01*
X93354406Y-86707066D01*
X93192266Y-86869206D01*
X93192261Y-86869212D01*
X93060738Y-87057046D01*
X92963830Y-87264866D01*
X92963828Y-87264872D01*
X92904479Y-87486365D01*
X92884494Y-87714800D01*
X69000000Y-87714800D01*
X69000000Y-84419750D01*
X71424300Y-84419750D01*
X71430322Y-84450026D01*
X71435933Y-84478231D01*
X71480248Y-84544552D01*
X71546569Y-84588867D01*
X71605052Y-84600500D01*
X71605053Y-84600500D01*
X73444547Y-84600500D01*
X73444548Y-84600500D01*
X73503031Y-84588867D01*
X73569352Y-84544552D01*
X73613667Y-84478231D01*
X73625300Y-84419748D01*
X73625300Y-82580252D01*
X73613667Y-82521769D01*
X73569352Y-82455448D01*
X73503031Y-82411133D01*
X73503028Y-82411132D01*
X73444550Y-82399500D01*
X73444548Y-82399500D01*
X71605052Y-82399500D01*
X71605049Y-82399500D01*
X71546571Y-82411132D01*
X71546568Y-82411133D01*
X71480248Y-82455448D01*
X71435933Y-82521768D01*
X71435932Y-82521771D01*
X71424300Y-82580249D01*
X71424300Y-84419750D01*
X69000000Y-84419750D01*
X69000000Y-81600000D01*
X79164318Y-81600000D01*
X79184955Y-81756760D01*
X79245463Y-81902839D01*
X79245468Y-81902847D01*
X79296521Y-81969380D01*
X79341718Y-82028282D01*
X79341722Y-82028285D01*
X79347560Y-82034124D01*
X79346665Y-82035018D01*
X79377132Y-82072498D01*
X79393574Y-82106641D01*
X79398386Y-82113699D01*
X79403435Y-82120540D01*
X79445495Y-82162599D01*
X79485945Y-82206194D01*
X79485946Y-82206195D01*
X79493329Y-82212082D01*
X79492788Y-82212760D01*
X79505117Y-82222221D01*
X80688836Y-83405940D01*
X80722862Y-83468252D01*
X80724663Y-83478587D01*
X80733073Y-83542465D01*
X80734956Y-83556762D01*
X80795464Y-83702841D01*
X80891718Y-83828282D01*
X81017159Y-83924536D01*
X81163238Y-83985044D01*
X81320000Y-84005682D01*
X81476762Y-83985044D01*
X81622841Y-83924536D01*
X81748282Y-83828282D01*
X81844536Y-83702841D01*
X81905044Y-83556762D01*
X81925682Y-83400000D01*
X81905044Y-83243238D01*
X81844536Y-83097159D01*
X81748282Y-82971718D01*
X81622841Y-82875464D01*
X81476762Y-82814956D01*
X81462465Y-82813073D01*
X81398587Y-82804663D01*
X81333660Y-82775939D01*
X81325952Y-82768848D01*
X80394188Y-81837085D01*
X80360165Y-81774775D01*
X80358363Y-81731549D01*
X80375682Y-81600000D01*
X80355044Y-81443238D01*
X80294536Y-81297159D01*
X80198282Y-81171718D01*
X80072841Y-81075464D01*
X79926762Y-81014956D01*
X79926760Y-81014955D01*
X79770000Y-80994318D01*
X79613239Y-81014955D01*
X79467160Y-81075463D01*
X79467157Y-81075465D01*
X79341718Y-81171718D01*
X79245465Y-81297157D01*
X79245463Y-81297160D01*
X79184955Y-81443239D01*
X79164318Y-81599999D01*
X79164318Y-81600000D01*
X69000000Y-81600000D01*
X69000000Y-77919124D01*
X69020002Y-77851003D01*
X69073658Y-77804510D01*
X69143932Y-77794406D01*
X69208512Y-77823900D01*
X69237121Y-77859727D01*
X69250490Y-77884738D01*
X69375517Y-78037083D01*
X69527862Y-78162110D01*
X69701673Y-78255014D01*
X69890268Y-78312224D01*
X69890272Y-78312224D01*
X69890274Y-78312225D01*
X70086397Y-78331541D01*
X70086400Y-78331541D01*
X70086403Y-78331541D01*
X70282524Y-78312225D01*
X70282526Y-78312225D01*
X70282527Y-78312224D01*
X70282532Y-78312224D01*
X70471127Y-78255014D01*
X70644938Y-78162110D01*
X70797283Y-78037083D01*
X70922310Y-77884738D01*
X71015214Y-77710927D01*
X71072424Y-77522332D01*
X71091741Y-77326200D01*
X71072425Y-77130075D01*
X71072425Y-77130073D01*
X71072424Y-77130070D01*
X71072424Y-77130068D01*
X71015214Y-76941473D01*
X70922310Y-76767662D01*
X70797283Y-76615317D01*
X70644938Y-76490290D01*
X70596260Y-76464271D01*
X70471128Y-76397386D01*
X70282525Y-76340174D01*
X70086403Y-76320859D01*
X70086397Y-76320859D01*
X69890275Y-76340174D01*
X69890273Y-76340174D01*
X69701671Y-76397386D01*
X69527861Y-76490290D01*
X69375517Y-76615317D01*
X69250488Y-76767663D01*
X69237121Y-76792672D01*
X69187368Y-76843320D01*
X69118132Y-76859029D01*
X69051393Y-76834812D01*
X69008341Y-76778358D01*
X69000000Y-76733275D01*
X69000000Y-75379124D01*
X69020002Y-75311003D01*
X69073658Y-75264510D01*
X69143932Y-75254406D01*
X69208512Y-75283900D01*
X69237121Y-75319727D01*
X69250490Y-75344738D01*
X69375517Y-75497083D01*
X69527862Y-75622110D01*
X69701673Y-75715014D01*
X69890268Y-75772224D01*
X69890272Y-75772224D01*
X69890274Y-75772225D01*
X70086397Y-75791541D01*
X70086400Y-75791541D01*
X70086403Y-75791541D01*
X70282524Y-75772225D01*
X70282526Y-75772225D01*
X70282527Y-75772224D01*
X70282532Y-75772224D01*
X70471127Y-75715014D01*
X70644938Y-75622110D01*
X70797283Y-75497083D01*
X70922310Y-75344738D01*
X71015214Y-75170927D01*
X71072424Y-74982332D01*
X71091741Y-74786200D01*
X71088126Y-74749497D01*
X71072425Y-74590075D01*
X71072425Y-74590073D01*
X71072424Y-74590070D01*
X71072424Y-74590068D01*
X71015214Y-74401473D01*
X70922310Y-74227662D01*
X70797283Y-74075317D01*
X70644938Y-73950290D01*
X70617290Y-73935512D01*
X70471128Y-73857386D01*
X70282525Y-73800174D01*
X70086403Y-73780859D01*
X70086397Y-73780859D01*
X69890275Y-73800174D01*
X69890273Y-73800174D01*
X69701671Y-73857386D01*
X69527861Y-73950290D01*
X69375517Y-74075317D01*
X69250488Y-74227663D01*
X69237121Y-74252672D01*
X69187368Y-74303320D01*
X69118132Y-74319029D01*
X69051393Y-74294812D01*
X69008341Y-74238358D01*
X69000000Y-74193275D01*
X69000000Y-69215000D01*
X91469318Y-69215000D01*
X91489955Y-69371760D01*
X91489956Y-69371762D01*
X91550464Y-69517841D01*
X91646718Y-69643282D01*
X91772159Y-69739536D01*
X91918238Y-69800044D01*
X92075000Y-69820682D01*
X92231762Y-69800044D01*
X92377841Y-69739536D01*
X92503282Y-69643282D01*
X92525140Y-69614795D01*
X92582479Y-69572928D01*
X92625103Y-69565500D01*
X95334897Y-69565500D01*
X95403018Y-69585502D01*
X95434859Y-69614795D01*
X95456718Y-69643282D01*
X95582159Y-69739536D01*
X95728238Y-69800044D01*
X95806618Y-69810363D01*
X95884999Y-69820682D01*
X95884999Y-69820681D01*
X95885000Y-69820682D01*
X96041762Y-69800044D01*
X96187841Y-69739536D01*
X96313282Y-69643282D01*
X96409536Y-69517841D01*
X96470044Y-69371762D01*
X96490682Y-69215000D01*
X96470044Y-69058238D01*
X96409536Y-68912159D01*
X96313282Y-68786718D01*
X96187841Y-68690464D01*
X96041762Y-68629956D01*
X96041760Y-68629955D01*
X95885000Y-68609318D01*
X95728239Y-68629955D01*
X95582160Y-68690463D01*
X95582157Y-68690465D01*
X95456717Y-68786718D01*
X95434859Y-68815205D01*
X95377521Y-68857072D01*
X95334897Y-68864500D01*
X92625103Y-68864500D01*
X92556982Y-68844498D01*
X92525141Y-68815205D01*
X92503282Y-68786718D01*
X92377842Y-68690465D01*
X92377841Y-68690464D01*
X92231762Y-68629956D01*
X92231760Y-68629955D01*
X92075000Y-68609318D01*
X91918239Y-68629955D01*
X91772160Y-68690463D01*
X91772157Y-68690465D01*
X91646718Y-68786718D01*
X91550465Y-68912157D01*
X91550463Y-68912160D01*
X91489955Y-69058239D01*
X91469318Y-69214999D01*
X91469318Y-69215000D01*
X69000000Y-69215000D01*
X69000000Y-67945000D01*
X90199318Y-67945000D01*
X90219955Y-68101760D01*
X90219956Y-68101762D01*
X90280464Y-68247841D01*
X90376718Y-68373282D01*
X90502159Y-68469536D01*
X90648238Y-68530044D01*
X90805000Y-68550682D01*
X90961762Y-68530044D01*
X91107841Y-68469536D01*
X91233282Y-68373282D01*
X91255140Y-68344795D01*
X91312479Y-68302928D01*
X91355103Y-68295500D01*
X94064897Y-68295500D01*
X94133018Y-68315502D01*
X94164859Y-68344795D01*
X94186718Y-68373282D01*
X94312159Y-68469536D01*
X94458238Y-68530044D01*
X94615000Y-68550682D01*
X94771762Y-68530044D01*
X94917841Y-68469536D01*
X95043282Y-68373282D01*
X95139536Y-68247841D01*
X95200044Y-68101762D01*
X95220682Y-67945000D01*
X95200044Y-67788238D01*
X95139536Y-67642159D01*
X95043282Y-67516718D01*
X94917841Y-67420464D01*
X94771762Y-67359956D01*
X94771760Y-67359955D01*
X94615000Y-67339318D01*
X94458239Y-67359955D01*
X94312160Y-67420463D01*
X94312157Y-67420465D01*
X94186717Y-67516718D01*
X94164859Y-67545205D01*
X94107521Y-67587072D01*
X94064897Y-67594500D01*
X91355103Y-67594500D01*
X91286982Y-67574498D01*
X91255141Y-67545205D01*
X91233282Y-67516718D01*
X91107842Y-67420465D01*
X91107841Y-67420464D01*
X90961762Y-67359956D01*
X90961760Y-67359955D01*
X90805000Y-67339318D01*
X90648239Y-67359955D01*
X90502160Y-67420463D01*
X90502157Y-67420465D01*
X90376718Y-67516718D01*
X90280465Y-67642157D01*
X90280463Y-67642160D01*
X90219955Y-67788239D01*
X90199318Y-67944999D01*
X90199318Y-67945000D01*
X69000000Y-67945000D01*
X69000000Y-67000000D01*
X57427000Y-67000000D01*
X57358879Y-66979998D01*
X57312386Y-66926342D01*
X57301000Y-66874000D01*
X57301000Y-64304750D01*
X85439500Y-64304750D01*
X85450587Y-64360489D01*
X85451133Y-64363231D01*
X85495448Y-64429552D01*
X85561769Y-64473867D01*
X85620252Y-64485500D01*
X85620253Y-64485500D01*
X87359747Y-64485500D01*
X87359748Y-64485500D01*
X87418231Y-64473867D01*
X87484552Y-64429552D01*
X87528867Y-64363231D01*
X87540500Y-64304748D01*
X87540500Y-62565252D01*
X87528867Y-62506769D01*
X87484552Y-62440448D01*
X87418231Y-62396133D01*
X87418228Y-62396132D01*
X87359750Y-62384500D01*
X87359748Y-62384500D01*
X85620252Y-62384500D01*
X85620249Y-62384500D01*
X85561771Y-62396132D01*
X85561768Y-62396133D01*
X85495448Y-62440448D01*
X85451133Y-62506768D01*
X85451132Y-62506771D01*
X85439500Y-62565249D01*
X85439500Y-64304750D01*
X57301000Y-64304750D01*
X57301000Y-61832200D01*
X77544318Y-61832200D01*
X77564955Y-61988960D01*
X77564956Y-61988962D01*
X77625464Y-62135041D01*
X77721718Y-62260482D01*
X77847159Y-62356736D01*
X77993238Y-62417244D01*
X78071618Y-62427563D01*
X78149999Y-62437882D01*
X78149999Y-62437881D01*
X78150000Y-62437882D01*
X78306762Y-62417244D01*
X78452841Y-62356736D01*
X78578282Y-62260482D01*
X78674536Y-62135041D01*
X78735044Y-61988962D01*
X78755682Y-61832200D01*
X78735044Y-61675438D01*
X78674536Y-61529359D01*
X78674531Y-61529352D01*
X78626537Y-61466804D01*
X78600937Y-61400584D01*
X78600500Y-61390101D01*
X78600500Y-60895003D01*
X85434417Y-60895003D01*
X85454698Y-61100927D01*
X85514768Y-61298954D01*
X85563487Y-61390101D01*
X85612315Y-61481450D01*
X85743590Y-61641410D01*
X85903550Y-61772685D01*
X86086046Y-61870232D01*
X86284066Y-61930300D01*
X86284070Y-61930300D01*
X86284072Y-61930301D01*
X86489997Y-61950583D01*
X86490000Y-61950583D01*
X86490003Y-61950583D01*
X86695927Y-61930301D01*
X86695928Y-61930300D01*
X86695934Y-61930300D01*
X86893954Y-61870232D01*
X87076450Y-61772685D01*
X87236410Y-61641410D01*
X87367685Y-61481450D01*
X87465232Y-61298954D01*
X87525300Y-61100934D01*
X87545583Y-60895000D01*
X87545583Y-60894996D01*
X87525301Y-60689072D01*
X87525300Y-60689070D01*
X87525300Y-60689066D01*
X87465232Y-60491046D01*
X87367685Y-60308550D01*
X87236410Y-60148590D01*
X87076450Y-60017315D01*
X87076448Y-60017314D01*
X87076447Y-60017313D01*
X86893954Y-59919768D01*
X86695927Y-59859698D01*
X86490003Y-59839417D01*
X86489997Y-59839417D01*
X86284072Y-59859698D01*
X86086045Y-59919768D01*
X85903552Y-60017313D01*
X85743590Y-60148590D01*
X85612313Y-60308552D01*
X85514768Y-60491045D01*
X85454698Y-60689072D01*
X85434417Y-60894996D01*
X85434417Y-60895003D01*
X78600500Y-60895003D01*
X78600500Y-52542097D01*
X78620502Y-52473976D01*
X78626531Y-52465401D01*
X78674536Y-52402841D01*
X78735044Y-52256762D01*
X78755682Y-52100000D01*
X78735044Y-51943238D01*
X78674536Y-51797159D01*
X78578282Y-51671718D01*
X78452841Y-51575464D01*
X78306762Y-51514956D01*
X78306760Y-51514955D01*
X78150000Y-51494318D01*
X77993239Y-51514955D01*
X77847160Y-51575463D01*
X77847157Y-51575465D01*
X77721718Y-51671718D01*
X77625465Y-51797157D01*
X77625463Y-51797160D01*
X77564955Y-51943239D01*
X77544318Y-52099999D01*
X77544318Y-52100000D01*
X77564955Y-52256760D01*
X77564956Y-52256762D01*
X77625464Y-52402841D01*
X77673462Y-52465393D01*
X77699063Y-52531613D01*
X77699500Y-52542097D01*
X77699500Y-61390101D01*
X77679498Y-61458222D01*
X77673463Y-61466804D01*
X77625468Y-61529352D01*
X77625463Y-61529360D01*
X77564955Y-61675439D01*
X77544318Y-61832199D01*
X77544318Y-61832200D01*
X57301000Y-61832200D01*
X57301000Y-61171800D01*
X74509918Y-61171800D01*
X74530555Y-61328560D01*
X74560389Y-61400584D01*
X74591064Y-61474641D01*
X74687318Y-61600082D01*
X74812759Y-61696336D01*
X74958838Y-61756844D01*
X75037218Y-61767163D01*
X75115599Y-61777482D01*
X75115599Y-61777481D01*
X75115600Y-61777482D01*
X75272362Y-61756844D01*
X75418441Y-61696336D01*
X75543882Y-61600082D01*
X75640136Y-61474641D01*
X75700644Y-61328562D01*
X75721282Y-61171800D01*
X75700644Y-61015038D01*
X75640136Y-60868959D01*
X75640131Y-60868952D01*
X75592137Y-60806404D01*
X75566537Y-60740184D01*
X75566100Y-60729701D01*
X75566100Y-51342097D01*
X75586102Y-51273976D01*
X75592131Y-51265401D01*
X75640136Y-51202841D01*
X75700644Y-51056762D01*
X75721282Y-50900000D01*
X75700644Y-50743238D01*
X75640136Y-50597159D01*
X75543882Y-50471718D01*
X75418441Y-50375464D01*
X75316270Y-50333143D01*
X75272360Y-50314955D01*
X75115600Y-50294318D01*
X74958839Y-50314955D01*
X74812760Y-50375463D01*
X74812757Y-50375465D01*
X74687318Y-50471718D01*
X74591065Y-50597157D01*
X74591063Y-50597160D01*
X74530555Y-50743239D01*
X74509918Y-50899999D01*
X74509918Y-50900000D01*
X74530555Y-51056760D01*
X74572837Y-51158836D01*
X74591064Y-51202841D01*
X74639062Y-51265393D01*
X74664663Y-51331613D01*
X74665100Y-51342097D01*
X74665100Y-60729701D01*
X74645098Y-60797822D01*
X74639063Y-60806404D01*
X74591068Y-60868952D01*
X74591063Y-60868960D01*
X74530555Y-61015039D01*
X74509918Y-61171799D01*
X74509918Y-61171800D01*
X57301000Y-61171800D01*
X57301000Y-59241403D01*
X66972859Y-59241403D01*
X66992174Y-59437524D01*
X66992174Y-59437526D01*
X67049386Y-59626128D01*
X67130136Y-59777200D01*
X67142290Y-59799938D01*
X67267317Y-59952283D01*
X67419662Y-60077310D01*
X67593473Y-60170214D01*
X67782068Y-60227424D01*
X67782072Y-60227424D01*
X67782074Y-60227425D01*
X67978197Y-60246741D01*
X67978200Y-60246741D01*
X67978203Y-60246741D01*
X68174324Y-60227425D01*
X68174326Y-60227425D01*
X68174327Y-60227424D01*
X68174332Y-60227424D01*
X68362927Y-60170214D01*
X68536738Y-60077310D01*
X68689083Y-59952283D01*
X68814110Y-59799938D01*
X68907014Y-59626127D01*
X68964224Y-59437532D01*
X68983541Y-59241400D01*
X68964225Y-59045275D01*
X68964225Y-59045273D01*
X68964224Y-59045270D01*
X68964224Y-59045268D01*
X68907014Y-58856673D01*
X68814110Y-58682862D01*
X68689083Y-58530517D01*
X68536738Y-58405490D01*
X68470341Y-58370000D01*
X68362928Y-58312586D01*
X68174325Y-58255374D01*
X67978203Y-58236059D01*
X67978197Y-58236059D01*
X67782075Y-58255374D01*
X67782073Y-58255374D01*
X67593471Y-58312586D01*
X67419661Y-58405490D01*
X67267317Y-58530517D01*
X67142290Y-58682861D01*
X67049386Y-58856671D01*
X66992174Y-59045273D01*
X66992174Y-59045275D01*
X66972859Y-59241396D01*
X66972859Y-59241403D01*
X57301000Y-59241403D01*
X57301000Y-57445000D01*
X56126000Y-57445000D01*
X56057879Y-57424998D01*
X56011386Y-57371342D01*
X56000000Y-57319000D01*
X56000000Y-49945000D01*
X57595357Y-49945000D01*
X57615885Y-50166539D01*
X57676768Y-50380520D01*
X57676774Y-50380537D01*
X57775938Y-50579684D01*
X57775942Y-50579689D01*
X57910017Y-50757235D01*
X58074438Y-50907124D01*
X58074439Y-50907125D01*
X58263587Y-51024240D01*
X58263590Y-51024241D01*
X58263599Y-51024247D01*
X58347525Y-51056760D01*
X58471053Y-51104616D01*
X58471056Y-51104616D01*
X58471060Y-51104618D01*
X58689757Y-51145500D01*
X58689760Y-51145500D01*
X58912240Y-51145500D01*
X58912243Y-51145500D01*
X59130940Y-51104618D01*
X59130944Y-51104616D01*
X59130946Y-51104616D01*
X59184298Y-51083946D01*
X59338401Y-51024247D01*
X59527562Y-50907124D01*
X59691981Y-50757236D01*
X59826058Y-50579689D01*
X59826059Y-50579685D01*
X59826061Y-50579684D01*
X59925225Y-50380537D01*
X59925226Y-50380533D01*
X59925229Y-50380528D01*
X59986115Y-50166536D01*
X60006643Y-49945000D01*
X59986115Y-49723464D01*
X59925229Y-49509472D01*
X59925227Y-49509468D01*
X59925225Y-49509462D01*
X59826061Y-49310315D01*
X59826057Y-49310310D01*
X59691982Y-49132764D01*
X59527561Y-48982875D01*
X59527560Y-48982874D01*
X59338412Y-48865759D01*
X59338405Y-48865755D01*
X59338401Y-48865753D01*
X59336638Y-48865070D01*
X59167107Y-48799392D01*
X61853642Y-48799392D01*
X61857385Y-48861265D01*
X61857500Y-48865070D01*
X61857500Y-50038178D01*
X61872859Y-50164670D01*
X61933179Y-50323725D01*
X61933181Y-50323729D01*
X61972382Y-50380520D01*
X62029817Y-50463729D01*
X62157148Y-50576534D01*
X62307775Y-50655590D01*
X62307776Y-50655590D01*
X62307778Y-50655591D01*
X62464461Y-50694209D01*
X62472944Y-50696300D01*
X62472947Y-50696300D01*
X62643053Y-50696300D01*
X62643056Y-50696300D01*
X62808225Y-50655590D01*
X62958852Y-50576534D01*
X63086183Y-50463729D01*
X63182818Y-50323730D01*
X63186146Y-50314956D01*
X63193972Y-50294318D01*
X63243140Y-50164672D01*
X63258500Y-50038172D01*
X63258499Y-49426499D01*
X63278502Y-49358379D01*
X63332158Y-49311886D01*
X63384500Y-49300500D01*
X74842368Y-49300500D01*
X74842372Y-49300500D01*
X74968872Y-49285140D01*
X75127930Y-49224818D01*
X75267929Y-49128183D01*
X75380734Y-49000852D01*
X75459790Y-48850225D01*
X75500500Y-48685056D01*
X75500500Y-48514944D01*
X75479449Y-48429534D01*
X75459791Y-48349778D01*
X75459790Y-48349776D01*
X75459790Y-48349775D01*
X75380734Y-48199148D01*
X75373424Y-48190897D01*
X75267930Y-48071818D01*
X75267928Y-48071816D01*
X75127929Y-47975181D01*
X75127925Y-47975179D01*
X74968870Y-47914859D01*
X74842378Y-47899500D01*
X74842372Y-47899500D01*
X62823072Y-47899500D01*
X62819268Y-47899385D01*
X62757394Y-47895642D01*
X62757393Y-47895642D01*
X62757391Y-47895642D01*
X62696412Y-47906816D01*
X62692650Y-47907389D01*
X62631128Y-47914859D01*
X62621817Y-47918390D01*
X62599863Y-47924509D01*
X62590073Y-47926303D01*
X62533540Y-47951745D01*
X62530027Y-47953200D01*
X62472067Y-47975183D01*
X62472065Y-47975184D01*
X62463873Y-47980839D01*
X62444022Y-47992035D01*
X62434949Y-47996119D01*
X62434941Y-47996124D01*
X62386146Y-48034349D01*
X62383084Y-48036603D01*
X62332073Y-48071815D01*
X62332070Y-48071817D01*
X62290961Y-48118219D01*
X62288353Y-48120989D01*
X62078989Y-48330353D01*
X62076218Y-48332961D01*
X62029816Y-48374071D01*
X62029815Y-48374071D01*
X61994598Y-48425091D01*
X61992344Y-48428154D01*
X61954124Y-48476940D01*
X61954119Y-48476947D01*
X61950038Y-48486016D01*
X61938840Y-48505872D01*
X61933182Y-48514069D01*
X61911201Y-48572026D01*
X61909745Y-48575541D01*
X61884304Y-48632068D01*
X61884304Y-48632069D01*
X61882508Y-48641869D01*
X61876388Y-48663821D01*
X61872860Y-48673123D01*
X61872859Y-48673130D01*
X61865389Y-48734652D01*
X61864816Y-48738414D01*
X61853642Y-48799392D01*
X59167107Y-48799392D01*
X59130946Y-48785383D01*
X59091972Y-48778097D01*
X58912243Y-48744500D01*
X58689757Y-48744500D01*
X58548674Y-48770873D01*
X58471053Y-48785383D01*
X58263603Y-48865751D01*
X58263587Y-48865759D01*
X58074439Y-48982874D01*
X58074438Y-48982875D01*
X57910017Y-49132764D01*
X57775942Y-49310310D01*
X57775938Y-49310315D01*
X57676774Y-49509462D01*
X57676768Y-49509479D01*
X57615885Y-49723460D01*
X57595357Y-49945000D01*
X56000000Y-49945000D01*
X56000000Y-47190003D01*
X86794417Y-47190003D01*
X86814698Y-47395927D01*
X86814699Y-47395933D01*
X86814700Y-47395934D01*
X86874768Y-47593954D01*
X86972315Y-47776450D01*
X87103590Y-47936410D01*
X87263550Y-48067685D01*
X87446046Y-48165232D01*
X87644066Y-48225300D01*
X87644070Y-48225300D01*
X87644072Y-48225301D01*
X87849997Y-48245583D01*
X87850000Y-48245583D01*
X87850003Y-48245583D01*
X88055927Y-48225301D01*
X88055928Y-48225300D01*
X88055934Y-48225300D01*
X88253954Y-48165232D01*
X88436450Y-48067685D01*
X88596410Y-47936410D01*
X88727685Y-47776450D01*
X88825232Y-47593954D01*
X88885300Y-47395934D01*
X88887855Y-47370000D01*
X88905583Y-47190003D01*
X88905583Y-47189996D01*
X88885301Y-46984072D01*
X88885300Y-46984070D01*
X88885300Y-46984066D01*
X88825232Y-46786046D01*
X88727685Y-46603550D01*
X88596410Y-46443590D01*
X88436450Y-46312315D01*
X88436448Y-46312314D01*
X88436447Y-46312313D01*
X88253954Y-46214768D01*
X88055927Y-46154698D01*
X87850003Y-46134417D01*
X87849997Y-46134417D01*
X87644072Y-46154698D01*
X87446045Y-46214768D01*
X87263552Y-46312313D01*
X87103590Y-46443590D01*
X86972313Y-46603552D01*
X86874768Y-46786045D01*
X86814698Y-46984072D01*
X86794417Y-47189996D01*
X86794417Y-47190003D01*
X56000000Y-47190003D01*
X56000000Y-45519748D01*
X86799500Y-45519748D01*
X86811133Y-45578231D01*
X86855448Y-45644552D01*
X86921769Y-45688867D01*
X86980252Y-45700500D01*
X86980253Y-45700500D01*
X88719747Y-45700500D01*
X88719748Y-45700500D01*
X88778231Y-45688867D01*
X88844552Y-45644552D01*
X88888867Y-45578231D01*
X88900500Y-45519748D01*
X88900500Y-43780252D01*
X88888867Y-43721769D01*
X88844552Y-43655448D01*
X88778231Y-43611133D01*
X88778228Y-43611132D01*
X88719750Y-43599500D01*
X88719748Y-43599500D01*
X86980252Y-43599500D01*
X86980249Y-43599500D01*
X86921771Y-43611132D01*
X86921768Y-43611133D01*
X86855448Y-43655448D01*
X86811133Y-43721768D01*
X86811132Y-43721771D01*
X86799500Y-43780249D01*
X86799500Y-43780252D01*
X86799500Y-45519748D01*
X56000000Y-45519748D01*
X56000000Y-43000000D01*
X55999999Y-42999999D01*
X42199329Y-42971274D01*
X20586238Y-42926288D01*
X20518159Y-42906144D01*
X20471778Y-42852392D01*
X20460500Y-42800288D01*
X20460500Y-37700000D01*
X26684494Y-37700000D01*
X26704479Y-37928434D01*
X26763828Y-38149927D01*
X26763830Y-38149933D01*
X26854675Y-38344750D01*
X26860738Y-38357753D01*
X26992264Y-38545591D01*
X27154409Y-38707736D01*
X27342247Y-38839262D01*
X27550070Y-38936171D01*
X27771565Y-38995521D01*
X28000000Y-39015506D01*
X28228435Y-38995521D01*
X28449930Y-38936171D01*
X28657753Y-38839262D01*
X28845591Y-38707736D01*
X29007736Y-38545591D01*
X29139262Y-38357753D01*
X29236171Y-38149930D01*
X29295521Y-37928435D01*
X29315506Y-37700000D01*
X29295521Y-37471565D01*
X29236171Y-37250070D01*
X29139262Y-37042247D01*
X29007736Y-36854409D01*
X28845591Y-36692264D01*
X28821265Y-36675231D01*
X28670623Y-36569750D01*
X45779500Y-36569750D01*
X45782187Y-36583260D01*
X45791133Y-36628231D01*
X45835448Y-36694552D01*
X45901769Y-36738867D01*
X45960252Y-36750500D01*
X45960253Y-36750500D01*
X47699747Y-36750500D01*
X47699748Y-36750500D01*
X47758231Y-36738867D01*
X47824552Y-36694552D01*
X47868867Y-36628231D01*
X47880500Y-36569748D01*
X47880500Y-35700003D01*
X48314417Y-35700003D01*
X48334698Y-35905927D01*
X48334699Y-35905933D01*
X48334700Y-35905934D01*
X48394768Y-36103954D01*
X48492315Y-36286450D01*
X48623590Y-36446410D01*
X48783550Y-36577685D01*
X48966046Y-36675232D01*
X49164066Y-36735300D01*
X49164070Y-36735300D01*
X49164072Y-36735301D01*
X49369997Y-36755583D01*
X49370000Y-36755583D01*
X49370003Y-36755583D01*
X49575927Y-36735301D01*
X49575928Y-36735300D01*
X49575934Y-36735300D01*
X49773954Y-36675232D01*
X49956450Y-36577685D01*
X50116410Y-36446410D01*
X50247685Y-36286450D01*
X50345232Y-36103954D01*
X50405300Y-35905934D01*
X50425583Y-35700003D01*
X50854417Y-35700003D01*
X50874698Y-35905927D01*
X50874699Y-35905933D01*
X50874700Y-35905934D01*
X50934768Y-36103954D01*
X51032315Y-36286450D01*
X51163590Y-36446410D01*
X51323550Y-36577685D01*
X51506046Y-36675232D01*
X51704066Y-36735300D01*
X51704070Y-36735300D01*
X51704072Y-36735301D01*
X51909997Y-36755583D01*
X51910000Y-36755583D01*
X51910003Y-36755583D01*
X52115927Y-36735301D01*
X52115928Y-36735300D01*
X52115934Y-36735300D01*
X52313954Y-36675232D01*
X52496450Y-36577685D01*
X52656410Y-36446410D01*
X52787685Y-36286450D01*
X52885232Y-36103954D01*
X52945300Y-35905934D01*
X52965583Y-35700003D01*
X53394417Y-35700003D01*
X53414698Y-35905927D01*
X53414699Y-35905933D01*
X53414700Y-35905934D01*
X53474768Y-36103954D01*
X53572315Y-36286450D01*
X53703590Y-36446410D01*
X53863550Y-36577685D01*
X54046046Y-36675232D01*
X54244066Y-36735300D01*
X54244070Y-36735300D01*
X54244072Y-36735301D01*
X54449997Y-36755583D01*
X54450000Y-36755583D01*
X54450003Y-36755583D01*
X54655927Y-36735301D01*
X54655928Y-36735300D01*
X54655934Y-36735300D01*
X54853954Y-36675232D01*
X55036450Y-36577685D01*
X55196410Y-36446410D01*
X55327685Y-36286450D01*
X55425232Y-36103954D01*
X55485300Y-35905934D01*
X55505583Y-35700003D01*
X55934417Y-35700003D01*
X55954698Y-35905927D01*
X55954699Y-35905933D01*
X55954700Y-35905934D01*
X56014768Y-36103954D01*
X56112315Y-36286450D01*
X56243590Y-36446410D01*
X56403550Y-36577685D01*
X56586046Y-36675232D01*
X56784066Y-36735300D01*
X56784070Y-36735300D01*
X56784072Y-36735301D01*
X56989997Y-36755583D01*
X56990000Y-36755583D01*
X56990003Y-36755583D01*
X57195927Y-36735301D01*
X57195928Y-36735300D01*
X57195934Y-36735300D01*
X57393954Y-36675232D01*
X57576450Y-36577685D01*
X57736410Y-36446410D01*
X57867685Y-36286450D01*
X57965232Y-36103954D01*
X58025300Y-35905934D01*
X58045583Y-35700003D01*
X58474417Y-35700003D01*
X58494698Y-35905927D01*
X58494699Y-35905933D01*
X58494700Y-35905934D01*
X58554768Y-36103954D01*
X58652315Y-36286450D01*
X58783590Y-36446410D01*
X58943550Y-36577685D01*
X59126046Y-36675232D01*
X59324066Y-36735300D01*
X59324070Y-36735300D01*
X59324072Y-36735301D01*
X59529997Y-36755583D01*
X59530000Y-36755583D01*
X59530003Y-36755583D01*
X59735927Y-36735301D01*
X59735928Y-36735300D01*
X59735934Y-36735300D01*
X59933954Y-36675232D01*
X60116450Y-36577685D01*
X60276410Y-36446410D01*
X60407685Y-36286450D01*
X60505232Y-36103954D01*
X60565300Y-35905934D01*
X60585583Y-35700003D01*
X61014417Y-35700003D01*
X61034698Y-35905927D01*
X61034699Y-35905933D01*
X61034700Y-35905934D01*
X61094768Y-36103954D01*
X61192315Y-36286450D01*
X61323590Y-36446410D01*
X61483550Y-36577685D01*
X61578108Y-36628228D01*
X61652896Y-36668203D01*
X61703544Y-36717955D01*
X61719500Y-36779325D01*
X61719500Y-37890581D01*
X61716818Y-37916439D01*
X61714956Y-37925314D01*
X61717241Y-37943639D01*
X61719016Y-37957880D01*
X61719500Y-37965672D01*
X61719500Y-37969039D01*
X61723087Y-37990539D01*
X61729426Y-38041391D01*
X61731527Y-38048448D01*
X61733907Y-38055380D01*
X61758294Y-38100444D01*
X61780800Y-38146481D01*
X61785046Y-38152428D01*
X61785063Y-38152450D01*
X61785086Y-38152482D01*
X61789583Y-38158259D01*
X61827275Y-38192957D01*
X64133177Y-40498859D01*
X64167202Y-40561171D01*
X64169004Y-40604398D01*
X64164318Y-40639997D01*
X64164318Y-40640001D01*
X64184955Y-40796760D01*
X64184956Y-40796762D01*
X64245464Y-40942841D01*
X64341718Y-41068282D01*
X64467159Y-41164536D01*
X64613238Y-41225044D01*
X64770000Y-41245682D01*
X64926762Y-41225044D01*
X65072841Y-41164536D01*
X65198282Y-41068282D01*
X65294536Y-40942841D01*
X65355044Y-40796762D01*
X65375682Y-40640000D01*
X65355044Y-40483238D01*
X65294536Y-40337159D01*
X65198282Y-40211718D01*
X65072841Y-40115464D01*
X64926762Y-40054956D01*
X64926760Y-40054955D01*
X64770000Y-40034318D01*
X64769996Y-40034318D01*
X64734397Y-40039004D01*
X64664248Y-40028064D01*
X64628858Y-40003177D01*
X63561850Y-38936169D01*
X62457402Y-37831720D01*
X62423378Y-37769411D01*
X62420499Y-37742637D01*
X62420500Y-36779321D01*
X62440501Y-36711204D01*
X62487101Y-36668204D01*
X62656450Y-36577685D01*
X62816410Y-36446410D01*
X62947685Y-36286450D01*
X63045232Y-36103954D01*
X63105300Y-35905934D01*
X63125583Y-35700003D01*
X63554417Y-35700003D01*
X63574698Y-35905927D01*
X63574699Y-35905933D01*
X63574700Y-35905934D01*
X63634768Y-36103954D01*
X63732315Y-36286450D01*
X63863590Y-36446410D01*
X64023550Y-36577685D01*
X64118108Y-36628228D01*
X64192896Y-36668203D01*
X64243544Y-36717955D01*
X64259500Y-36779325D01*
X64259500Y-38525581D01*
X64256818Y-38551439D01*
X64254956Y-38560314D01*
X64257241Y-38578639D01*
X64259016Y-38592880D01*
X64259500Y-38600672D01*
X64259500Y-38604039D01*
X64263087Y-38625539D01*
X64269426Y-38676391D01*
X64271527Y-38683448D01*
X64273907Y-38690380D01*
X64298294Y-38735444D01*
X64320800Y-38781481D01*
X64325046Y-38787428D01*
X64325063Y-38787450D01*
X64325086Y-38787482D01*
X64329583Y-38793259D01*
X64367275Y-38827957D01*
X66038177Y-40498859D01*
X66072202Y-40561171D01*
X66074004Y-40604398D01*
X66069318Y-40639997D01*
X66069318Y-40640001D01*
X66089955Y-40796760D01*
X66089956Y-40796762D01*
X66150464Y-40942841D01*
X66246718Y-41068282D01*
X66372159Y-41164536D01*
X66518238Y-41225044D01*
X66675000Y-41245682D01*
X66831762Y-41225044D01*
X66977841Y-41164536D01*
X67103282Y-41068282D01*
X67199536Y-40942841D01*
X67260044Y-40796762D01*
X67280682Y-40640000D01*
X67260044Y-40483238D01*
X67199536Y-40337159D01*
X67103282Y-40211718D01*
X66977841Y-40115464D01*
X66831762Y-40054956D01*
X66831760Y-40054955D01*
X66675001Y-40034318D01*
X66674997Y-40034318D01*
X66639398Y-40039004D01*
X66569249Y-40028064D01*
X66533859Y-40003177D01*
X64997404Y-38466722D01*
X64963378Y-38404410D01*
X64960499Y-38377627D01*
X64960499Y-37700000D01*
X92884494Y-37700000D01*
X92904479Y-37928434D01*
X92963828Y-38149927D01*
X92963830Y-38149933D01*
X93054675Y-38344750D01*
X93060738Y-38357753D01*
X93192264Y-38545591D01*
X93354409Y-38707736D01*
X93542247Y-38839262D01*
X93750070Y-38936171D01*
X93971565Y-38995521D01*
X94200000Y-39015506D01*
X94428435Y-38995521D01*
X94649930Y-38936171D01*
X94857753Y-38839262D01*
X95045591Y-38707736D01*
X95207736Y-38545591D01*
X95339262Y-38357753D01*
X95436171Y-38149930D01*
X95495521Y-37928435D01*
X95515506Y-37700000D01*
X95495521Y-37471565D01*
X95436171Y-37250070D01*
X95339262Y-37042247D01*
X95207736Y-36854409D01*
X95045591Y-36692264D01*
X95021265Y-36675231D01*
X94857753Y-36560738D01*
X94649933Y-36463830D01*
X94649927Y-36463828D01*
X94556315Y-36438744D01*
X94428435Y-36404479D01*
X94200000Y-36384494D01*
X93971565Y-36404479D01*
X93750072Y-36463828D01*
X93750066Y-36463830D01*
X93542246Y-36560738D01*
X93354412Y-36692261D01*
X93354406Y-36692266D01*
X93192266Y-36854406D01*
X93192261Y-36854412D01*
X93060738Y-37042246D01*
X92963830Y-37250066D01*
X92963828Y-37250072D01*
X92904479Y-37471565D01*
X92884494Y-37700000D01*
X64960499Y-37700000D01*
X64960499Y-36779325D01*
X64980501Y-36711204D01*
X65027101Y-36668204D01*
X65196450Y-36577685D01*
X65356410Y-36446410D01*
X65487685Y-36286450D01*
X65585232Y-36103954D01*
X65645300Y-35905934D01*
X65665583Y-35700003D01*
X66094417Y-35700003D01*
X66114698Y-35905927D01*
X66114699Y-35905933D01*
X66114700Y-35905934D01*
X66174768Y-36103954D01*
X66272315Y-36286450D01*
X66403590Y-36446410D01*
X66563550Y-36577685D01*
X66746046Y-36675232D01*
X66944066Y-36735300D01*
X66944070Y-36735300D01*
X66944072Y-36735301D01*
X67149997Y-36755583D01*
X67150000Y-36755583D01*
X67150003Y-36755583D01*
X67355927Y-36735301D01*
X67355928Y-36735300D01*
X67355934Y-36735300D01*
X67553954Y-36675232D01*
X67736450Y-36577685D01*
X67896410Y-36446410D01*
X68027685Y-36286450D01*
X68125232Y-36103954D01*
X68185300Y-35905934D01*
X68205583Y-35700003D01*
X68634417Y-35700003D01*
X68654698Y-35905927D01*
X68654699Y-35905933D01*
X68654700Y-35905934D01*
X68714768Y-36103954D01*
X68812315Y-36286450D01*
X68943590Y-36446410D01*
X69103550Y-36577685D01*
X69286046Y-36675232D01*
X69484066Y-36735300D01*
X69484070Y-36735300D01*
X69484072Y-36735301D01*
X69689997Y-36755583D01*
X69690000Y-36755583D01*
X69690003Y-36755583D01*
X69895927Y-36735301D01*
X69895928Y-36735300D01*
X69895934Y-36735300D01*
X70093954Y-36675232D01*
X70276450Y-36577685D01*
X70436410Y-36446410D01*
X70567685Y-36286450D01*
X70665232Y-36103954D01*
X70725300Y-35905934D01*
X70745583Y-35700003D01*
X73714417Y-35700003D01*
X73734698Y-35905927D01*
X73734699Y-35905933D01*
X73734700Y-35905934D01*
X73794768Y-36103954D01*
X73892315Y-36286450D01*
X74023590Y-36446410D01*
X74183550Y-36577685D01*
X74366046Y-36675232D01*
X74564066Y-36735300D01*
X74564070Y-36735300D01*
X74564072Y-36735301D01*
X74769997Y-36755583D01*
X74770000Y-36755583D01*
X74770003Y-36755583D01*
X74975927Y-36735301D01*
X74975928Y-36735300D01*
X74975934Y-36735300D01*
X75173954Y-36675232D01*
X75356450Y-36577685D01*
X75516410Y-36446410D01*
X75647685Y-36286450D01*
X75745232Y-36103954D01*
X75805300Y-35905934D01*
X75825583Y-35700000D01*
X75805300Y-35494066D01*
X75745232Y-35296046D01*
X75647685Y-35113550D01*
X75516410Y-34953590D01*
X75356450Y-34822315D01*
X75356448Y-34822314D01*
X75356447Y-34822313D01*
X75173954Y-34724768D01*
X74975927Y-34664698D01*
X74770003Y-34644417D01*
X74769997Y-34644417D01*
X74564072Y-34664698D01*
X74366045Y-34724768D01*
X74183552Y-34822313D01*
X74023590Y-34953590D01*
X73892313Y-35113552D01*
X73794768Y-35296045D01*
X73734698Y-35494072D01*
X73714417Y-35699996D01*
X73714417Y-35700003D01*
X70745583Y-35700003D01*
X70745583Y-35700000D01*
X70725300Y-35494066D01*
X70665232Y-35296046D01*
X70567685Y-35113550D01*
X70436410Y-34953590D01*
X70276450Y-34822315D01*
X70276448Y-34822314D01*
X70276447Y-34822313D01*
X70093954Y-34724768D01*
X69895927Y-34664698D01*
X69690003Y-34644417D01*
X69689997Y-34644417D01*
X69484072Y-34664698D01*
X69286045Y-34724768D01*
X69103552Y-34822313D01*
X68943590Y-34953590D01*
X68812313Y-35113552D01*
X68714768Y-35296045D01*
X68654698Y-35494072D01*
X68634417Y-35699996D01*
X68634417Y-35700003D01*
X68205583Y-35700003D01*
X68205583Y-35700000D01*
X68185300Y-35494066D01*
X68125232Y-35296046D01*
X68027685Y-35113550D01*
X67896410Y-34953590D01*
X67736450Y-34822315D01*
X67736448Y-34822314D01*
X67736447Y-34822313D01*
X67553954Y-34724768D01*
X67355927Y-34664698D01*
X67150003Y-34644417D01*
X67149997Y-34644417D01*
X66944072Y-34664698D01*
X66746045Y-34724768D01*
X66563552Y-34822313D01*
X66403590Y-34953590D01*
X66272313Y-35113552D01*
X66174768Y-35296045D01*
X66114698Y-35494072D01*
X66094417Y-35699996D01*
X66094417Y-35700003D01*
X65665583Y-35700003D01*
X65665583Y-35700000D01*
X65645300Y-35494066D01*
X65585232Y-35296046D01*
X65487685Y-35113550D01*
X65356410Y-34953590D01*
X65196450Y-34822315D01*
X65196448Y-34822314D01*
X65196447Y-34822313D01*
X65013954Y-34724768D01*
X64815927Y-34664698D01*
X64610003Y-34644417D01*
X64609997Y-34644417D01*
X64404072Y-34664698D01*
X64206045Y-34724768D01*
X64023552Y-34822313D01*
X63863590Y-34953590D01*
X63732313Y-35113552D01*
X63634768Y-35296045D01*
X63574698Y-35494072D01*
X63554417Y-35699996D01*
X63554417Y-35700003D01*
X63125583Y-35700003D01*
X63125583Y-35700000D01*
X63105300Y-35494066D01*
X63045232Y-35296046D01*
X62947685Y-35113550D01*
X62816410Y-34953590D01*
X62656450Y-34822315D01*
X62656448Y-34822314D01*
X62656447Y-34822313D01*
X62473954Y-34724768D01*
X62275927Y-34664698D01*
X62070003Y-34644417D01*
X62069997Y-34644417D01*
X61864072Y-34664698D01*
X61666045Y-34724768D01*
X61483552Y-34822313D01*
X61323590Y-34953590D01*
X61192313Y-35113552D01*
X61094768Y-35296045D01*
X61034698Y-35494072D01*
X61014417Y-35699996D01*
X61014417Y-35700003D01*
X60585583Y-35700003D01*
X60585583Y-35700000D01*
X60565300Y-35494066D01*
X60505232Y-35296046D01*
X60407685Y-35113550D01*
X60276410Y-34953590D01*
X60116450Y-34822315D01*
X60116448Y-34822314D01*
X60116447Y-34822313D01*
X59933954Y-34724768D01*
X59735927Y-34664698D01*
X59530003Y-34644417D01*
X59529997Y-34644417D01*
X59324072Y-34664698D01*
X59126045Y-34724768D01*
X58943552Y-34822313D01*
X58783590Y-34953590D01*
X58652313Y-35113552D01*
X58554768Y-35296045D01*
X58494698Y-35494072D01*
X58474417Y-35699996D01*
X58474417Y-35700003D01*
X58045583Y-35700003D01*
X58045583Y-35700000D01*
X58025300Y-35494066D01*
X57965232Y-35296046D01*
X57867685Y-35113550D01*
X57736410Y-34953590D01*
X57576450Y-34822315D01*
X57576448Y-34822314D01*
X57576447Y-34822313D01*
X57393954Y-34724768D01*
X57195927Y-34664698D01*
X56990003Y-34644417D01*
X56989997Y-34644417D01*
X56784072Y-34664698D01*
X56586045Y-34724768D01*
X56403552Y-34822313D01*
X56243590Y-34953590D01*
X56112313Y-35113552D01*
X56014768Y-35296045D01*
X55954698Y-35494072D01*
X55934417Y-35699996D01*
X55934417Y-35700003D01*
X55505583Y-35700003D01*
X55505583Y-35700000D01*
X55485300Y-35494066D01*
X55425232Y-35296046D01*
X55327685Y-35113550D01*
X55196410Y-34953590D01*
X55036450Y-34822315D01*
X55036448Y-34822314D01*
X55036447Y-34822313D01*
X54853954Y-34724768D01*
X54655927Y-34664698D01*
X54450003Y-34644417D01*
X54449997Y-34644417D01*
X54244072Y-34664698D01*
X54046045Y-34724768D01*
X53863552Y-34822313D01*
X53703590Y-34953590D01*
X53572313Y-35113552D01*
X53474768Y-35296045D01*
X53414698Y-35494072D01*
X53394417Y-35699996D01*
X53394417Y-35700003D01*
X52965583Y-35700003D01*
X52965583Y-35700000D01*
X52945300Y-35494066D01*
X52885232Y-35296046D01*
X52787685Y-35113550D01*
X52656410Y-34953590D01*
X52496450Y-34822315D01*
X52496448Y-34822314D01*
X52496447Y-34822313D01*
X52313954Y-34724768D01*
X52115927Y-34664698D01*
X51910003Y-34644417D01*
X51909997Y-34644417D01*
X51704072Y-34664698D01*
X51506045Y-34724768D01*
X51323552Y-34822313D01*
X51163590Y-34953590D01*
X51032313Y-35113552D01*
X50934768Y-35296045D01*
X50874698Y-35494072D01*
X50854417Y-35699996D01*
X50854417Y-35700003D01*
X50425583Y-35700003D01*
X50425583Y-35700000D01*
X50405300Y-35494066D01*
X50345232Y-35296046D01*
X50247685Y-35113550D01*
X50116410Y-34953590D01*
X49956450Y-34822315D01*
X49956448Y-34822314D01*
X49956447Y-34822313D01*
X49773954Y-34724768D01*
X49575927Y-34664698D01*
X49370003Y-34644417D01*
X49369997Y-34644417D01*
X49164072Y-34664698D01*
X48966045Y-34724768D01*
X48783552Y-34822313D01*
X48623590Y-34953590D01*
X48492313Y-35113552D01*
X48394768Y-35296045D01*
X48334698Y-35494072D01*
X48314417Y-35699996D01*
X48314417Y-35700003D01*
X47880500Y-35700003D01*
X47880500Y-34830252D01*
X47868867Y-34771769D01*
X47824552Y-34705448D01*
X47758231Y-34661133D01*
X47758228Y-34661132D01*
X47699750Y-34649500D01*
X47699748Y-34649500D01*
X45960252Y-34649500D01*
X45960249Y-34649500D01*
X45901771Y-34661132D01*
X45901768Y-34661133D01*
X45835448Y-34705448D01*
X45791133Y-34771768D01*
X45791132Y-34771771D01*
X45779500Y-34830249D01*
X45779500Y-36569750D01*
X28670623Y-36569750D01*
X28657753Y-36560738D01*
X28449933Y-36463830D01*
X28449927Y-36463828D01*
X28356315Y-36438744D01*
X28228435Y-36404479D01*
X28000000Y-36384494D01*
X27771565Y-36404479D01*
X27550072Y-36463828D01*
X27550066Y-36463830D01*
X27342246Y-36560738D01*
X27154412Y-36692261D01*
X27154406Y-36692266D01*
X26992266Y-36854406D01*
X26992261Y-36854412D01*
X26860738Y-37042246D01*
X26763830Y-37250066D01*
X26763828Y-37250072D01*
X26704479Y-37471565D01*
X26684494Y-37700000D01*
X20460500Y-37700000D01*
X20460500Y-20573000D01*
X20480502Y-20504879D01*
X20534158Y-20458386D01*
X20586500Y-20447000D01*
X101563500Y-20447000D01*
X101631621Y-20467002D01*
G37*
G04 #@! TD.AperFunction*
M02*
