M48
; DRILL file {KiCad 7.0.7} date Wed Sep 27 11:51:20 2023
; FORMAT={-:-/ absolute / metric / decimal}
; #@! TF.CreationDate,2023-09-27T11:51:20+02:00
; #@! TF.GenerationSoftware,Kicad,Pcbnew,7.0.7
; #@! TF.FileFunction,Plated,1,2,PTH
FMAT,2
METRIC
; #@! TA.AperFunction,Plated,PTH,ViaDrill
T1C0.400
; #@! TA.AperFunction,Plated,PTH,ComponentDrill
T2C0.700
; #@! TA.AperFunction,Plated,PTH,ComponentDrill
T3C0.800
; #@! TA.AperFunction,Plated,PTH,ComponentDrill
T4C1.000
; #@! TA.AperFunction,Plated,PTH,ComponentDrill
T5C1.200
; #@! TA.AperFunction,Plated,PTH,ComponentDrill
T6C1.300
; #@! TA.AperFunction,Plated,PTH,ComponentDrill
T7C1.400
%
G90
G05
T1
X62.558Y-49.996
X64.77Y-40.64
X66.226Y-49.996
X66.675Y-40.64
X66.81Y-54.288
X74.8Y-48.6
X75.116Y-50.9
X75.116Y-61.172
X78.15Y-52.1
X78.15Y-61.832
X78.15Y-74.1
X79.77Y-81.6
X80.35Y-45.6
X81.32Y-83.4
X82.15Y-85.1
X83.41Y-77.67
X87.07Y-78.46
X90.805Y-67.945
X92.075Y-69.215
X93.6Y-77.7
X94.615Y-67.945
X95.885Y-69.215
X97.5Y-78.55
T2
X48.903Y-74.608
X51.951Y-78.063
X53.983Y-74.608
X57.031Y-78.063
T3
X24.122Y-70.805
X31.622Y-74.805
X36.949Y-75.656
X44.449Y-79.656
X62.466Y-74.786
X62.466Y-77.326
X62.466Y-79.866
X67.978Y-59.241
X67.978Y-64.241
X70.086Y-74.786
X70.086Y-77.326
X70.086Y-79.866
T4
X25.306Y-79.561
X25.306Y-84.641
X38.481Y-49.945
X38.481Y-55.025
X42.2Y-84.92
X42.2Y-90.0
X46.83Y-35.7
X49.37Y-35.7
X51.91Y-35.7
X54.45Y-35.7
X56.99Y-35.7
X58.801Y-49.945
X58.801Y-60.105
X58.801Y-70.265
X59.53Y-35.7
X62.07Y-35.7
X64.61Y-35.7
X67.15Y-35.7
X69.69Y-35.7
X72.23Y-35.7
X72.525Y-83.5
X72.525Y-91.12
X74.77Y-35.7
X86.49Y-60.895
X86.49Y-63.435
X87.85Y-44.65
X87.85Y-47.19
T5
X54.745Y-83.5
X54.745Y-91.12
X62.365Y-83.5
T6
X25.72Y-100.55
X30.8Y-100.55
X35.88Y-100.55
X40.96Y-100.55
X46.04Y-100.55
X51.12Y-100.55
X56.2Y-100.55
X80.75Y-100.55
X85.83Y-100.55
X90.91Y-100.55
X95.99Y-100.55
T7
X29.15Y-49.86
X29.15Y-65.1
T0
M30
