G04 #@! TF.GenerationSoftware,KiCad,Pcbnew,(6.0.9)*
G04 #@! TF.CreationDate,2023-01-13T11:09:30+01:00*
G04 #@! TF.ProjectId,heating-controller,68656174-696e-4672-9d63-6f6e74726f6c,rev?*
G04 #@! TF.SameCoordinates,Original*
G04 #@! TF.FileFunction,Soldermask,Top*
G04 #@! TF.FilePolarity,Negative*
%FSLAX46Y46*%
G04 Gerber Fmt 4.6, Leading zero omitted, Abs format (unit mm)*
G04 Created by KiCad (PCBNEW (6.0.9)) date 2023-01-13 11:09:30*
%MOMM*%
%LPD*%
G01*
G04 APERTURE LIST*
G04 Aperture macros list*
%AMRoundRect*
0 Rectangle with rounded corners*
0 $1 Rounding radius*
0 $2 $3 $4 $5 $6 $7 $8 $9 X,Y pos of 4 corners*
0 Add a 4 corners polygon primitive as box body*
4,1,4,$2,$3,$4,$5,$6,$7,$8,$9,$2,$3,0*
0 Add four circle primitives for the rounded corners*
1,1,$1+$1,$2,$3*
1,1,$1+$1,$4,$5*
1,1,$1+$1,$6,$7*
1,1,$1+$1,$8,$9*
0 Add four rect primitives between the rounded corners*
20,1,$1+$1,$2,$3,$4,$5,0*
20,1,$1+$1,$4,$5,$6,$7,0*
20,1,$1+$1,$6,$7,$8,$9,0*
20,1,$1+$1,$8,$9,$2,$3,0*%
G04 Aperture macros list end*
%ADD10RoundRect,0.200000X0.200000X0.275000X-0.200000X0.275000X-0.200000X-0.275000X0.200000X-0.275000X0*%
%ADD11RoundRect,0.200000X-0.275000X0.200000X-0.275000X-0.200000X0.275000X-0.200000X0.275000X0.200000X0*%
%ADD12RoundRect,0.150000X-0.587500X-0.150000X0.587500X-0.150000X0.587500X0.150000X-0.587500X0.150000X0*%
%ADD13R,1.700000X1.700000*%
%ADD14O,1.700000X1.700000*%
%ADD15RoundRect,0.200000X-0.200000X-0.275000X0.200000X-0.275000X0.200000X0.275000X-0.200000X0.275000X0*%
%ADD16R,2.000000X2.000000*%
%ADD17C,2.000000*%
%ADD18C,1.600000*%
%ADD19C,1.800000*%
%ADD20R,2.600000X2.600000*%
%ADD21C,2.600000*%
%ADD22RoundRect,0.243750X0.456250X-0.243750X0.456250X0.243750X-0.456250X0.243750X-0.456250X-0.243750X0*%
%ADD23RoundRect,0.250000X-0.650000X0.325000X-0.650000X-0.325000X0.650000X-0.325000X0.650000X0.325000X0*%
%ADD24RoundRect,0.250000X-0.250000X-0.475000X0.250000X-0.475000X0.250000X0.475000X-0.250000X0.475000X0*%
%ADD25R,0.450000X0.600000*%
%ADD26C,2.200000*%
%ADD27R,1.800000X1.800000*%
%ADD28RoundRect,0.225000X-0.225000X-0.250000X0.225000X-0.250000X0.225000X0.250000X-0.225000X0.250000X0*%
%ADD29R,1.000000X1.000000*%
%ADD30C,2.800000*%
%ADD31O,2.800000X2.800000*%
%ADD32C,1.400000*%
%ADD33O,1.400000X1.400000*%
%ADD34RoundRect,0.250000X0.250000X0.475000X-0.250000X0.475000X-0.250000X-0.475000X0.250000X-0.475000X0*%
%ADD35R,1.600000X1.600000*%
%ADD36O,1.600000X1.600000*%
%ADD37RoundRect,0.150000X-0.150000X0.587500X-0.150000X-0.587500X0.150000X-0.587500X0.150000X0.587500X0*%
G04 APERTURE END LIST*
D10*
X82950000Y-49700000D03*
X81300000Y-49700000D03*
D11*
X78500000Y-43850000D03*
X78500000Y-45500000D03*
X81850000Y-38750000D03*
X81850000Y-40400000D03*
D12*
X81850000Y-43700000D03*
X81850000Y-45600000D03*
X83725000Y-44650000D03*
D13*
X87850000Y-44650000D03*
D14*
X87850000Y-47190000D03*
D15*
X46850000Y-27600000D03*
X48500000Y-27600000D03*
D16*
X38524200Y-49950000D03*
D17*
X38524200Y-55030000D03*
X58844200Y-60110000D03*
X58844200Y-49950000D03*
D18*
X67978200Y-59241400D03*
X67978200Y-64241400D03*
D10*
X94225000Y-59100000D03*
X92575000Y-59100000D03*
D15*
X46850000Y-30400000D03*
X48500000Y-30400000D03*
D10*
X86600000Y-61000000D03*
X84950000Y-61000000D03*
D19*
X44448600Y-79656400D03*
X36948600Y-75656400D03*
D11*
X78150000Y-70275000D03*
X78150000Y-71925000D03*
D13*
X46830000Y-35700000D03*
D14*
X49370000Y-35700000D03*
X51910000Y-35700000D03*
X54450000Y-35700000D03*
X56990000Y-35700000D03*
X59530000Y-35700000D03*
X62070000Y-35700000D03*
X64610000Y-35700000D03*
X67150000Y-35700000D03*
X69690000Y-35700000D03*
X72230000Y-35700000D03*
X74770000Y-35700000D03*
D20*
X25720000Y-100550000D03*
D21*
X30800000Y-100550000D03*
X35880000Y-100550000D03*
X40960000Y-100550000D03*
X46040000Y-100550000D03*
X51120000Y-100550000D03*
X56200000Y-100550000D03*
D22*
X95150000Y-62975000D03*
X95150000Y-61100000D03*
D11*
X78150000Y-65100000D03*
X78150000Y-66750000D03*
D23*
X75064800Y-77248200D03*
X75064800Y-80198200D03*
D24*
X50650000Y-30400000D03*
X52550000Y-30400000D03*
D25*
X74800000Y-43350000D03*
X74800000Y-45450000D03*
D26*
X62364800Y-83500000D03*
X54744800Y-91120000D03*
X54744800Y-83500000D03*
D27*
X72524800Y-83500000D03*
D19*
X72524800Y-91120000D03*
D15*
X46800000Y-38950000D03*
X48450000Y-38950000D03*
D25*
X77200000Y-85800000D03*
X77200000Y-87900000D03*
D13*
X90000000Y-63600000D03*
D14*
X90000000Y-61060000D03*
D28*
X63774200Y-49995800D03*
X65324200Y-49995800D03*
D20*
X80750000Y-100550000D03*
D21*
X85830000Y-100550000D03*
X90910000Y-100550000D03*
X95990000Y-100550000D03*
D29*
X63350000Y-54288400D03*
X65850000Y-54288400D03*
D17*
X42200000Y-90000000D03*
X42200000Y-84920000D03*
X25306200Y-84641400D03*
X25306200Y-79561400D03*
D30*
X29150000Y-65100000D03*
D31*
X29150000Y-49860000D03*
D19*
X24121600Y-70805000D03*
X31621600Y-74805000D03*
D32*
X51950800Y-78062800D03*
D33*
X57030800Y-78062800D03*
D34*
X68200000Y-46600000D03*
X66300000Y-46600000D03*
D35*
X62466400Y-74786200D03*
D36*
X62466400Y-77326200D03*
X62466400Y-79866200D03*
X70086400Y-79866200D03*
X70086400Y-77326200D03*
X70086400Y-74786200D03*
D37*
X84100000Y-87225000D03*
X82200000Y-87225000D03*
X83150000Y-89100000D03*
D32*
X48902800Y-74608400D03*
D33*
X53982800Y-74608400D03*
M02*
