G04 #@! TF.GenerationSoftware,KiCad,Pcbnew,7.0.7*
G04 #@! TF.CreationDate,2023-09-27T11:51:15+02:00*
G04 #@! TF.ProjectId,heating-controller,68656174-696e-4672-9d63-6f6e74726f6c,rev?*
G04 #@! TF.SameCoordinates,Original*
G04 #@! TF.FileFunction,Copper,L1,Top*
G04 #@! TF.FilePolarity,Positive*
%FSLAX46Y46*%
G04 Gerber Fmt 4.6, Leading zero omitted, Abs format (unit mm)*
G04 Created by KiCad (PCBNEW 7.0.7) date 2023-09-27 11:51:15*
%MOMM*%
%LPD*%
G01*
G04 APERTURE LIST*
G04 Aperture macros list*
%AMRoundRect*
0 Rectangle with rounded corners*
0 $1 Rounding radius*
0 $2 $3 $4 $5 $6 $7 $8 $9 X,Y pos of 4 corners*
0 Add a 4 corners polygon primitive as box body*
4,1,4,$2,$3,$4,$5,$6,$7,$8,$9,$2,$3,0*
0 Add four circle primitives for the rounded corners*
1,1,$1+$1,$2,$3*
1,1,$1+$1,$4,$5*
1,1,$1+$1,$6,$7*
1,1,$1+$1,$8,$9*
0 Add four rect primitives between the rounded corners*
20,1,$1+$1,$2,$3,$4,$5,0*
20,1,$1+$1,$4,$5,$6,$7,0*
20,1,$1+$1,$6,$7,$8,$9,0*
20,1,$1+$1,$8,$9,$2,$3,0*%
G04 Aperture macros list end*
G04 #@! TA.AperFunction,SMDPad,CuDef*
%ADD10RoundRect,0.150000X-0.150000X0.587500X-0.150000X-0.587500X0.150000X-0.587500X0.150000X0.587500X0*%
G04 #@! TD*
G04 #@! TA.AperFunction,SMDPad,CuDef*
%ADD11RoundRect,0.200000X-0.200000X-0.275000X0.200000X-0.275000X0.200000X0.275000X-0.200000X0.275000X0*%
G04 #@! TD*
G04 #@! TA.AperFunction,SMDPad,CuDef*
%ADD12RoundRect,0.200000X-0.275000X0.200000X-0.275000X-0.200000X0.275000X-0.200000X0.275000X0.200000X0*%
G04 #@! TD*
G04 #@! TA.AperFunction,ComponentPad*
%ADD13R,1.700000X1.700000*%
G04 #@! TD*
G04 #@! TA.AperFunction,ComponentPad*
%ADD14O,1.700000X1.700000*%
G04 #@! TD*
G04 #@! TA.AperFunction,ComponentPad*
%ADD15RoundRect,0.400000X-0.400000X-0.400000X0.400000X-0.400000X0.400000X0.400000X-0.400000X0.400000X0*%
G04 #@! TD*
G04 #@! TA.AperFunction,ComponentPad*
%ADD16C,1.600000*%
G04 #@! TD*
G04 #@! TA.AperFunction,ComponentPad*
%ADD17C,2.000000*%
G04 #@! TD*
G04 #@! TA.AperFunction,SMDPad,CuDef*
%ADD18RoundRect,0.100000X0.100000X-0.712500X0.100000X0.712500X-0.100000X0.712500X-0.100000X-0.712500X0*%
G04 #@! TD*
G04 #@! TA.AperFunction,SMDPad,CuDef*
%ADD19RoundRect,0.200000X0.275000X-0.200000X0.275000X0.200000X-0.275000X0.200000X-0.275000X-0.200000X0*%
G04 #@! TD*
G04 #@! TA.AperFunction,SMDPad,CuDef*
%ADD20RoundRect,0.200000X0.200000X0.275000X-0.200000X0.275000X-0.200000X-0.275000X0.200000X-0.275000X0*%
G04 #@! TD*
G04 #@! TA.AperFunction,ComponentPad*
%ADD21C,1.800000*%
G04 #@! TD*
G04 #@! TA.AperFunction,SMDPad,CuDef*
%ADD22RoundRect,0.237500X-0.237500X0.300000X-0.237500X-0.300000X0.237500X-0.300000X0.237500X0.300000X0*%
G04 #@! TD*
G04 #@! TA.AperFunction,ComponentPad*
%ADD23R,2.600000X2.600000*%
G04 #@! TD*
G04 #@! TA.AperFunction,ComponentPad*
%ADD24C,2.600000*%
G04 #@! TD*
G04 #@! TA.AperFunction,SMDPad,CuDef*
%ADD25RoundRect,0.243750X0.243750X0.456250X-0.243750X0.456250X-0.243750X-0.456250X0.243750X-0.456250X0*%
G04 #@! TD*
G04 #@! TA.AperFunction,SMDPad,CuDef*
%ADD26RoundRect,0.250000X-0.650000X0.325000X-0.650000X-0.325000X0.650000X-0.325000X0.650000X0.325000X0*%
G04 #@! TD*
G04 #@! TA.AperFunction,SMDPad,CuDef*
%ADD27RoundRect,0.225000X-0.375000X0.225000X-0.375000X-0.225000X0.375000X-0.225000X0.375000X0.225000X0*%
G04 #@! TD*
G04 #@! TA.AperFunction,SMDPad,CuDef*
%ADD28RoundRect,0.150000X-0.587500X-0.150000X0.587500X-0.150000X0.587500X0.150000X-0.587500X0.150000X0*%
G04 #@! TD*
G04 #@! TA.AperFunction,ComponentPad*
%ADD29C,2.200000*%
G04 #@! TD*
G04 #@! TA.AperFunction,ComponentPad*
%ADD30R,1.800000X1.800000*%
G04 #@! TD*
G04 #@! TA.AperFunction,SMDPad,CuDef*
%ADD31RoundRect,0.112500X-0.112500X0.187500X-0.112500X-0.187500X0.112500X-0.187500X0.112500X0.187500X0*%
G04 #@! TD*
G04 #@! TA.AperFunction,SMDPad,CuDef*
%ADD32RoundRect,0.225000X-0.225000X-0.250000X0.225000X-0.250000X0.225000X0.250000X-0.225000X0.250000X0*%
G04 #@! TD*
G04 #@! TA.AperFunction,SMDPad,CuDef*
%ADD33RoundRect,0.250000X-0.250000X-0.250000X0.250000X-0.250000X0.250000X0.250000X-0.250000X0.250000X0*%
G04 #@! TD*
G04 #@! TA.AperFunction,ComponentPad*
%ADD34C,2.800000*%
G04 #@! TD*
G04 #@! TA.AperFunction,ComponentPad*
%ADD35O,2.800000X2.800000*%
G04 #@! TD*
G04 #@! TA.AperFunction,ComponentPad*
%ADD36C,1.400000*%
G04 #@! TD*
G04 #@! TA.AperFunction,ComponentPad*
%ADD37O,1.400000X1.400000*%
G04 #@! TD*
G04 #@! TA.AperFunction,ComponentPad*
%ADD38R,1.600000X1.600000*%
G04 #@! TD*
G04 #@! TA.AperFunction,ComponentPad*
%ADD39O,1.600000X1.600000*%
G04 #@! TD*
G04 #@! TA.AperFunction,ViaPad*
%ADD40C,0.800000*%
G04 #@! TD*
G04 #@! TA.AperFunction,Conductor*
%ADD41C,1.500000*%
G04 #@! TD*
G04 #@! TA.AperFunction,Conductor*
%ADD42C,0.500000*%
G04 #@! TD*
G04 #@! TA.AperFunction,Conductor*
%ADD43C,0.400000*%
G04 #@! TD*
G04 #@! TA.AperFunction,Conductor*
%ADD44C,0.300000*%
G04 #@! TD*
G04 #@! TA.AperFunction,Conductor*
%ADD45C,1.000000*%
G04 #@! TD*
G04 #@! TA.AperFunction,Conductor*
%ADD46C,0.250000*%
G04 #@! TD*
G04 APERTURE END LIST*
D10*
X84100000Y-87225000D03*
X82200000Y-87225000D03*
X83150000Y-89100000D03*
D11*
X89250000Y-73500000D03*
X90900000Y-73500000D03*
D12*
X99300000Y-73500000D03*
X99300000Y-75150000D03*
D11*
X51245000Y-29845000D03*
X52895000Y-29845000D03*
D13*
X87850000Y-44650000D03*
D14*
X87850000Y-47190000D03*
D15*
X38481000Y-49945000D03*
D16*
X38481000Y-55025000D03*
D17*
X58801000Y-70265000D03*
X58801000Y-60105000D03*
X58801000Y-49945000D03*
D16*
X67978200Y-59241400D03*
X67978200Y-64241400D03*
D18*
X95355000Y-76972500D03*
X96005000Y-76972500D03*
X96655000Y-76972500D03*
X97305000Y-76972500D03*
X97305000Y-72747500D03*
X96655000Y-72747500D03*
X96005000Y-72747500D03*
X95355000Y-72747500D03*
D19*
X82390000Y-64205000D03*
X82390000Y-62555000D03*
D20*
X83830000Y-60900000D03*
X82180000Y-60900000D03*
D21*
X44448600Y-79656400D03*
X36948600Y-75656400D03*
D22*
X93600000Y-74737500D03*
X93600000Y-76462500D03*
D12*
X78150000Y-70275000D03*
X78150000Y-71925000D03*
D13*
X46830000Y-35700000D03*
D14*
X49370000Y-35700000D03*
X51910000Y-35700000D03*
X54450000Y-35700000D03*
X56990000Y-35700000D03*
X59530000Y-35700000D03*
X62070000Y-35700000D03*
X64610000Y-35700000D03*
X67150000Y-35700000D03*
X69690000Y-35700000D03*
X72230000Y-35700000D03*
X74770000Y-35700000D03*
D20*
X82950000Y-49700000D03*
X81300000Y-49700000D03*
D18*
X85005000Y-76962500D03*
X85655000Y-76962500D03*
X86305000Y-76962500D03*
X86955000Y-76962500D03*
X86955000Y-72737500D03*
X86305000Y-72737500D03*
X85655000Y-72737500D03*
X85005000Y-72737500D03*
D23*
X25720000Y-100550000D03*
D24*
X30800000Y-100550000D03*
X35880000Y-100550000D03*
X40960000Y-100550000D03*
X46040000Y-100550000D03*
X51120000Y-100550000D03*
X56200000Y-100550000D03*
D25*
X84287500Y-66390000D03*
X82412500Y-66390000D03*
D12*
X78150000Y-65100000D03*
X78150000Y-66750000D03*
D20*
X86645000Y-79970000D03*
X84995000Y-79970000D03*
D26*
X75064800Y-77248200D03*
X75064800Y-80198200D03*
D27*
X74800000Y-42750000D03*
X74800000Y-46050000D03*
D28*
X81850000Y-43700000D03*
X81850000Y-45600000D03*
X83725000Y-44650000D03*
D29*
X62364800Y-83500000D03*
X54744800Y-91120000D03*
X54744800Y-83500000D03*
D30*
X72524800Y-83500000D03*
D21*
X72524800Y-91120000D03*
D20*
X97155000Y-79950000D03*
X95505000Y-79950000D03*
D31*
X77200000Y-85800000D03*
X77200000Y-87900000D03*
D13*
X86490000Y-63435000D03*
D14*
X86490000Y-60895000D03*
D12*
X78500000Y-43850000D03*
X78500000Y-45500000D03*
D32*
X63774200Y-49995800D03*
X65324200Y-49995800D03*
D23*
X80750000Y-100550000D03*
D24*
X85830000Y-100550000D03*
X90910000Y-100550000D03*
X95990000Y-100550000D03*
D33*
X63350000Y-54288400D03*
X65850000Y-54288400D03*
D22*
X83420000Y-74737500D03*
X83420000Y-76462500D03*
D17*
X42200000Y-90000000D03*
X42200000Y-84920000D03*
X25306200Y-84641400D03*
X25306200Y-79561400D03*
D34*
X29150000Y-65100000D03*
D35*
X29150000Y-49860000D03*
D12*
X81850000Y-38750000D03*
X81850000Y-40400000D03*
D21*
X24121600Y-70805000D03*
X31621600Y-74805000D03*
D36*
X51950800Y-78062800D03*
D37*
X57030800Y-78062800D03*
D38*
X62466400Y-74786200D03*
D39*
X62466400Y-77326200D03*
X62466400Y-79866200D03*
X70086400Y-79866200D03*
X70086400Y-77326200D03*
X70086400Y-74786200D03*
D36*
X48902800Y-74608400D03*
D37*
X53982800Y-74608400D03*
D40*
X62558000Y-49995800D03*
X74800000Y-48600000D03*
X66225600Y-49995800D03*
X97500000Y-78550000D03*
X83410000Y-77670000D03*
X78150000Y-74100000D03*
X87070000Y-78460000D03*
X93600000Y-77700000D03*
X66809800Y-54288400D03*
X80350000Y-45600000D03*
X82150000Y-85100000D03*
X75115600Y-50900000D03*
X75115600Y-61171800D03*
X78150000Y-61832200D03*
X78150000Y-52100000D03*
X90805000Y-67945000D03*
X94615000Y-67945000D03*
X92075000Y-69215000D03*
X95885000Y-69215000D03*
X79770000Y-81600000D03*
X81320000Y-83400000D03*
X66675000Y-40640000D03*
X64770000Y-40640000D03*
D41*
X62100000Y-83764800D02*
X62364800Y-83500000D01*
X62100000Y-87000000D02*
X62100000Y-83764800D01*
X54300000Y-87000000D02*
X62100000Y-87000000D01*
X53100000Y-88200000D02*
X54300000Y-87000000D01*
X53000000Y-88200000D02*
X53100000Y-88200000D01*
X46040000Y-95160000D02*
X53000000Y-88200000D01*
X46040000Y-100550000D02*
X46040000Y-95160000D01*
D42*
X84600000Y-90000000D02*
X77100000Y-90000000D01*
X85500000Y-89100000D02*
X84600000Y-90000000D01*
X85500000Y-83400000D02*
X85500000Y-89100000D01*
X82100000Y-81520000D02*
X82860000Y-82280000D01*
X82860000Y-82280000D02*
X84380000Y-82280000D01*
X84380000Y-82280000D02*
X85500000Y-83400000D01*
X83560000Y-68200000D02*
X82640000Y-68200000D01*
X82640000Y-68200000D02*
X82100000Y-68740000D01*
X84287500Y-67472500D02*
X83560000Y-68200000D01*
X82100000Y-68740000D02*
X82100000Y-81520000D01*
X84287500Y-66390000D02*
X84287500Y-67472500D01*
X77200000Y-89900000D02*
X77100000Y-90000000D01*
X77200000Y-88000000D02*
X77200000Y-89900000D01*
X77100000Y-90000000D02*
X73644800Y-90000000D01*
X73644800Y-90000000D02*
X72524800Y-91120000D01*
D43*
X93600000Y-74737500D02*
X95137500Y-74737500D01*
X95137500Y-74737500D02*
X95355000Y-74955000D01*
X95355000Y-74955000D02*
X95355000Y-72747500D01*
X95550000Y-75150000D02*
X95355000Y-74955000D01*
X95550000Y-75150000D02*
X99300000Y-75150000D01*
D44*
X98547500Y-72747500D02*
X99300000Y-73500000D01*
X97305000Y-72747500D02*
X98547500Y-72747500D01*
X88487500Y-72737500D02*
X89250000Y-73500000D01*
X86955000Y-72737500D02*
X88487500Y-72737500D01*
D43*
X90900000Y-74737500D02*
X90900000Y-73500000D01*
X90900000Y-74737500D02*
X83420000Y-74737500D01*
X93600000Y-74737500D02*
X90900000Y-74737500D01*
D45*
X74800000Y-48600000D02*
X74800000Y-46050000D01*
D42*
X77242500Y-83242500D02*
X72782300Y-83242500D01*
X81150000Y-60850000D02*
X81150000Y-62420000D01*
X77242500Y-83242500D02*
X77242500Y-85757500D01*
X81150000Y-62940000D02*
X81150000Y-82050000D01*
X81150000Y-82050000D02*
X79957500Y-83242500D01*
X79957500Y-83242500D02*
X77242500Y-83242500D01*
D45*
X62542600Y-49980400D02*
X62558000Y-49995800D01*
D42*
X81285000Y-62555000D02*
X82390000Y-62555000D01*
D45*
X62542600Y-58342600D02*
X62542600Y-52542600D01*
D42*
X81150000Y-62420000D02*
X81150000Y-62940000D01*
X81150000Y-59100000D02*
X81150000Y-60850000D01*
D45*
X63441400Y-59241400D02*
X62542600Y-58342600D01*
X62542600Y-49980400D02*
X62542600Y-52542600D01*
D42*
X80200000Y-48600000D02*
X74800000Y-48600000D01*
X72782300Y-83242500D02*
X72524800Y-83500000D01*
D45*
X62542600Y-52542600D02*
X62542600Y-53856600D01*
D42*
X81300000Y-49700000D02*
X80200000Y-48600000D01*
X81150000Y-59100000D02*
X68119600Y-59100000D01*
D45*
X62558000Y-49995800D02*
X63774200Y-49995800D01*
D42*
X82130000Y-60850000D02*
X82180000Y-60900000D01*
D45*
X67978200Y-59241400D02*
X63441400Y-59241400D01*
D42*
X68119600Y-59100000D02*
X67978200Y-59241400D01*
D45*
X58844200Y-49950000D02*
X62512200Y-49950000D01*
D42*
X81150000Y-60850000D02*
X82130000Y-60850000D01*
X81150000Y-62420000D02*
X81285000Y-62555000D01*
D43*
X93600000Y-76462500D02*
X93600000Y-77700000D01*
D42*
X79450000Y-45600000D02*
X80350000Y-45600000D01*
D46*
X97500000Y-78300000D02*
X97305000Y-78105000D01*
D45*
X65850000Y-54288400D02*
X66809800Y-54288400D01*
D42*
X78500000Y-45500000D02*
X79350000Y-45500000D01*
D43*
X97305000Y-78105000D02*
X97305000Y-78315000D01*
D42*
X74732800Y-79866200D02*
X70086400Y-79866200D01*
X79350000Y-45500000D02*
X79450000Y-45600000D01*
D43*
X86955000Y-76962500D02*
X86955000Y-78345000D01*
D46*
X97305000Y-78315000D02*
X97370000Y-78380000D01*
X65324200Y-49995800D02*
X66225600Y-49995800D01*
D43*
X83420000Y-76392500D02*
X83420000Y-77440000D01*
D42*
X82200000Y-87225000D02*
X82200000Y-85150000D01*
X78150000Y-71925000D02*
X78150000Y-74100000D01*
D46*
X82200000Y-85150000D02*
X82150000Y-85100000D01*
X75064800Y-80198200D02*
X74732800Y-79866200D01*
X86955000Y-78345000D02*
X87070000Y-78460000D01*
D42*
X80350000Y-45600000D02*
X81850000Y-45600000D01*
D46*
X97500000Y-78550000D02*
X97500000Y-78300000D01*
X83420000Y-77440000D02*
X83470000Y-77490000D01*
D43*
X97305000Y-76972500D02*
X97305000Y-78105000D01*
D46*
X74770000Y-42720000D02*
X74800000Y-42750000D01*
D45*
X74770000Y-35700000D02*
X74770000Y-42720000D01*
D46*
X74800000Y-35730000D02*
X74770000Y-35700000D01*
D42*
X84287500Y-66390000D02*
X85590000Y-66390000D01*
X85610000Y-64315000D02*
X86490000Y-63435000D01*
X85610000Y-66370000D02*
X85610000Y-64315000D01*
D46*
X85590000Y-66390000D02*
X85610000Y-66370000D01*
X82390000Y-66367500D02*
X82390000Y-64205000D01*
X82412500Y-66390000D02*
X82390000Y-66367500D01*
X74986800Y-77326200D02*
X75064800Y-77248200D01*
D42*
X71600000Y-38600000D02*
X58000000Y-38600000D01*
X70086400Y-77326200D02*
X74986800Y-77326200D01*
X56990000Y-37590000D02*
X56990000Y-35700000D01*
X56990000Y-30955000D02*
X56990000Y-35700000D01*
X75063800Y-69045800D02*
X75063800Y-61223600D01*
D46*
X75063800Y-77247200D02*
X75064800Y-77248200D01*
D42*
X52895000Y-29845000D02*
X55880000Y-29845000D01*
X72825000Y-48609400D02*
X72825000Y-39825000D01*
X55880000Y-29845000D02*
X56990000Y-30955000D01*
X75063800Y-69045800D02*
X75063800Y-77247200D01*
X58000000Y-38600000D02*
X56990000Y-37590000D01*
X75115600Y-50900000D02*
X72825000Y-48609400D01*
X72825000Y-39825000D02*
X71600000Y-38600000D01*
D46*
X75063800Y-61223600D02*
X75115600Y-61171800D01*
X93600000Y-74775000D02*
X93675000Y-74700000D01*
D42*
X46830000Y-39210000D02*
X49530000Y-41910000D01*
X90805000Y-59055000D02*
X90805000Y-65405000D01*
X89535000Y-66675000D02*
X86995000Y-66675000D01*
X47405000Y-29845000D02*
X51245000Y-29845000D01*
X61595000Y-41910000D02*
X67945000Y-48260000D01*
X90805000Y-65405000D02*
X89535000Y-66675000D01*
D43*
X85005000Y-74700000D02*
X85005000Y-72737500D01*
D42*
X73660000Y-57785000D02*
X89535000Y-57785000D01*
X67945000Y-52070000D02*
X73660000Y-57785000D01*
X46830000Y-35700000D02*
X46830000Y-39210000D01*
X86995000Y-66675000D02*
X83420000Y-70250000D01*
X67945000Y-48260000D02*
X67945000Y-52070000D01*
X89535000Y-57785000D02*
X90805000Y-59055000D01*
X49530000Y-41910000D02*
X61595000Y-41910000D01*
X83420000Y-70250000D02*
X83420000Y-74737500D01*
X46830000Y-30420000D02*
X47405000Y-29845000D01*
X46830000Y-35700000D02*
X46830000Y-30420000D01*
X86645000Y-79970000D02*
X86645000Y-90455000D01*
D46*
X86305000Y-76962500D02*
X86305000Y-78825000D01*
D42*
X81690000Y-92340000D02*
X80750000Y-93280000D01*
D46*
X86645000Y-79165000D02*
X86645000Y-79970000D01*
D42*
X84760000Y-92340000D02*
X81690000Y-92340000D01*
D46*
X86305000Y-78825000D02*
X86645000Y-79165000D01*
D42*
X80750000Y-93280000D02*
X80750000Y-100550000D01*
X86645000Y-90455000D02*
X84760000Y-92340000D01*
X90910000Y-93240000D02*
X90910000Y-100550000D01*
X97155000Y-90170000D02*
X94615000Y-92710000D01*
X94615000Y-92710000D02*
X91440000Y-92710000D01*
D46*
X97155000Y-79655000D02*
X96660000Y-79160000D01*
X97155000Y-79950000D02*
X97155000Y-79655000D01*
X96660000Y-76977500D02*
X96655000Y-76972500D01*
D42*
X91440000Y-92710000D02*
X90910000Y-93240000D01*
D46*
X96660000Y-79160000D02*
X96660000Y-76977500D01*
D42*
X97155000Y-79950000D02*
X97155000Y-90170000D01*
X71750000Y-40750000D02*
X70550000Y-39550000D01*
X71750000Y-49050000D02*
X71750000Y-40750000D01*
X56150000Y-39550000D02*
X54450000Y-37850000D01*
X78150000Y-61832200D02*
X78150000Y-65100000D01*
X78150000Y-52100000D02*
X74800000Y-52100000D01*
X70550000Y-39550000D02*
X56150000Y-39550000D01*
X54450000Y-37850000D02*
X54450000Y-35700000D01*
X74800000Y-52100000D02*
X71750000Y-49050000D01*
D44*
X62230000Y-41275000D02*
X51435000Y-41275000D01*
X49370000Y-39210000D02*
X49370000Y-35700000D01*
X68580000Y-47625000D02*
X62230000Y-41275000D01*
X90805000Y-66675000D02*
X90805000Y-67945000D01*
X87630000Y-67945000D02*
X85655000Y-69920000D01*
X96005000Y-72747500D02*
X96005000Y-71240000D01*
X92075000Y-65405000D02*
X90805000Y-66675000D01*
X68580000Y-51435000D02*
X68580000Y-47625000D01*
X94615000Y-69850000D02*
X94615000Y-67945000D01*
X90805000Y-67945000D02*
X87630000Y-67945000D01*
X51435000Y-41275000D02*
X49370000Y-39210000D01*
X85655000Y-69920000D02*
X85655000Y-72737500D01*
X73660000Y-56515000D02*
X68580000Y-51435000D01*
X90170000Y-56515000D02*
X73660000Y-56515000D01*
X92075000Y-58420000D02*
X90170000Y-56515000D01*
X96005000Y-71240000D02*
X94615000Y-69850000D01*
X92075000Y-58420000D02*
X92075000Y-65405000D01*
X86360000Y-70485000D02*
X86360000Y-72682500D01*
X92710000Y-57785000D02*
X90805000Y-55880000D01*
X92710000Y-66675000D02*
X92075000Y-67310000D01*
X74295000Y-55880000D02*
X69215000Y-50800000D01*
X90805000Y-55880000D02*
X74295000Y-55880000D01*
X87630000Y-69215000D02*
X86360000Y-70485000D01*
X86360000Y-72682500D02*
X86305000Y-72737500D01*
X92075000Y-67310000D02*
X92075000Y-69215000D01*
X62865000Y-40640000D02*
X53340000Y-40640000D01*
X69215000Y-50800000D02*
X69215000Y-46990000D01*
X51910000Y-39210000D02*
X51910000Y-35700000D01*
X96655000Y-69985000D02*
X95885000Y-69215000D01*
X53340000Y-40640000D02*
X51910000Y-39210000D01*
X92075000Y-69215000D02*
X87630000Y-69215000D01*
X96655000Y-72747500D02*
X96655000Y-69985000D01*
X92710000Y-57785000D02*
X92710000Y-66675000D01*
X69215000Y-46990000D02*
X62865000Y-40640000D01*
D42*
X81850000Y-33000000D02*
X81850000Y-38750000D01*
X60010000Y-32250000D02*
X81100000Y-32250000D01*
X59530000Y-32730000D02*
X60010000Y-32250000D01*
X81100000Y-32250000D02*
X81850000Y-33000000D01*
X59530000Y-35700000D02*
X59530000Y-32730000D01*
X83725000Y-44650000D02*
X87850000Y-44650000D01*
X87550000Y-49700000D02*
X87850000Y-49400000D01*
X87850000Y-49400000D02*
X87850000Y-47190000D01*
X82950000Y-49700000D02*
X87550000Y-49700000D01*
X83830000Y-60900000D02*
X86775000Y-60900000D01*
X79350000Y-43850000D02*
X78500000Y-43850000D01*
X79500000Y-43700000D02*
X79350000Y-43850000D01*
X81850000Y-43700000D02*
X79500000Y-43700000D01*
X81850000Y-40400000D02*
X81850000Y-43700000D01*
X78150000Y-68480000D02*
X78150000Y-70275000D01*
X83680000Y-83400000D02*
X84100000Y-83820000D01*
X79770000Y-81600000D02*
X79770000Y-69150000D01*
X84100000Y-83820000D02*
X84100000Y-87225000D01*
X79770000Y-69150000D02*
X79080000Y-68460000D01*
X78150000Y-66750000D02*
X78150000Y-68480000D01*
X81320000Y-83400000D02*
X83680000Y-83400000D01*
X78170000Y-68460000D02*
X79080000Y-68460000D01*
X78150000Y-68480000D02*
X78170000Y-68460000D01*
D46*
X95505000Y-79950000D02*
X95505000Y-78795000D01*
X96005000Y-78295000D02*
X96005000Y-76972500D01*
X95505000Y-78795000D02*
X96005000Y-78295000D01*
D44*
X70485000Y-44450000D02*
X66675000Y-40640000D01*
X93980000Y-66040000D02*
X93980000Y-56515000D01*
X97305000Y-72747500D02*
X97305000Y-69365000D01*
X97305000Y-69365000D02*
X93980000Y-66040000D01*
X75565000Y-54610000D02*
X70485000Y-49530000D01*
X70485000Y-49530000D02*
X70485000Y-44450000D01*
X93980000Y-56515000D02*
X92075000Y-54610000D01*
X92075000Y-54610000D02*
X75565000Y-54610000D01*
X93345000Y-57150000D02*
X93345000Y-69850000D01*
X69850000Y-45720000D02*
X69850000Y-50165000D01*
X93345000Y-69850000D02*
X92075000Y-71120000D01*
X92075000Y-71120000D02*
X86995000Y-71120000D01*
X86955000Y-71160000D02*
X86955000Y-72737500D01*
X64770000Y-40640000D02*
X69850000Y-45720000D01*
X74930000Y-55245000D02*
X91440000Y-55245000D01*
X69850000Y-50165000D02*
X74930000Y-55245000D01*
X91440000Y-55245000D02*
X93345000Y-57150000D01*
D46*
X84995000Y-79970000D02*
X84995000Y-78805000D01*
X84995000Y-78805000D02*
X85655000Y-78145000D01*
X85655000Y-78145000D02*
X85655000Y-76962500D01*
M02*
