G04 #@! TF.GenerationSoftware,KiCad,Pcbnew,7.0.7*
G04 #@! TF.CreationDate,2023-09-27T11:51:15+02:00*
G04 #@! TF.ProjectId,heating-controller,68656174-696e-4672-9d63-6f6e74726f6c,rev?*
G04 #@! TF.SameCoordinates,Original*
G04 #@! TF.FileFunction,Paste,Top*
G04 #@! TF.FilePolarity,Positive*
%FSLAX46Y46*%
G04 Gerber Fmt 4.6, Leading zero omitted, Abs format (unit mm)*
G04 Created by KiCad (PCBNEW 7.0.7) date 2023-09-27 11:51:15*
%MOMM*%
%LPD*%
G01*
G04 APERTURE LIST*
G04 Aperture macros list*
%AMRoundRect*
0 Rectangle with rounded corners*
0 $1 Rounding radius*
0 $2 $3 $4 $5 $6 $7 $8 $9 X,Y pos of 4 corners*
0 Add a 4 corners polygon primitive as box body*
4,1,4,$2,$3,$4,$5,$6,$7,$8,$9,$2,$3,0*
0 Add four circle primitives for the rounded corners*
1,1,$1+$1,$2,$3*
1,1,$1+$1,$4,$5*
1,1,$1+$1,$6,$7*
1,1,$1+$1,$8,$9*
0 Add four rect primitives between the rounded corners*
20,1,$1+$1,$2,$3,$4,$5,0*
20,1,$1+$1,$4,$5,$6,$7,0*
20,1,$1+$1,$6,$7,$8,$9,0*
20,1,$1+$1,$8,$9,$2,$3,0*%
G04 Aperture macros list end*
%ADD10RoundRect,0.150000X-0.150000X0.587500X-0.150000X-0.587500X0.150000X-0.587500X0.150000X0.587500X0*%
%ADD11RoundRect,0.200000X-0.200000X-0.275000X0.200000X-0.275000X0.200000X0.275000X-0.200000X0.275000X0*%
%ADD12RoundRect,0.200000X-0.275000X0.200000X-0.275000X-0.200000X0.275000X-0.200000X0.275000X0.200000X0*%
%ADD13RoundRect,0.100000X0.100000X-0.712500X0.100000X0.712500X-0.100000X0.712500X-0.100000X-0.712500X0*%
%ADD14RoundRect,0.200000X0.275000X-0.200000X0.275000X0.200000X-0.275000X0.200000X-0.275000X-0.200000X0*%
%ADD15RoundRect,0.200000X0.200000X0.275000X-0.200000X0.275000X-0.200000X-0.275000X0.200000X-0.275000X0*%
%ADD16RoundRect,0.237500X-0.237500X0.300000X-0.237500X-0.300000X0.237500X-0.300000X0.237500X0.300000X0*%
%ADD17RoundRect,0.243750X0.243750X0.456250X-0.243750X0.456250X-0.243750X-0.456250X0.243750X-0.456250X0*%
%ADD18RoundRect,0.250000X-0.650000X0.325000X-0.650000X-0.325000X0.650000X-0.325000X0.650000X0.325000X0*%
%ADD19RoundRect,0.225000X-0.375000X0.225000X-0.375000X-0.225000X0.375000X-0.225000X0.375000X0.225000X0*%
%ADD20RoundRect,0.150000X-0.587500X-0.150000X0.587500X-0.150000X0.587500X0.150000X-0.587500X0.150000X0*%
%ADD21RoundRect,0.112500X-0.112500X0.187500X-0.112500X-0.187500X0.112500X-0.187500X0.112500X0.187500X0*%
%ADD22RoundRect,0.225000X-0.225000X-0.250000X0.225000X-0.250000X0.225000X0.250000X-0.225000X0.250000X0*%
%ADD23RoundRect,0.250000X-0.250000X-0.250000X0.250000X-0.250000X0.250000X0.250000X-0.250000X0.250000X0*%
G04 APERTURE END LIST*
D10*
X84100000Y-87225000D03*
X82200000Y-87225000D03*
X83150000Y-89100000D03*
D11*
X89250000Y-73500000D03*
X90900000Y-73500000D03*
D12*
X99300000Y-73500000D03*
X99300000Y-75150000D03*
D11*
X51245000Y-29845000D03*
X52895000Y-29845000D03*
D13*
X95355000Y-76972500D03*
X96005000Y-76972500D03*
X96655000Y-76972500D03*
X97305000Y-76972500D03*
X97305000Y-72747500D03*
X96655000Y-72747500D03*
X96005000Y-72747500D03*
X95355000Y-72747500D03*
D14*
X82390000Y-64205000D03*
X82390000Y-62555000D03*
D15*
X83830000Y-60900000D03*
X82180000Y-60900000D03*
D16*
X93600000Y-74737500D03*
X93600000Y-76462500D03*
D12*
X78150000Y-70275000D03*
X78150000Y-71925000D03*
D15*
X82950000Y-49700000D03*
X81300000Y-49700000D03*
D13*
X85005000Y-76962500D03*
X85655000Y-76962500D03*
X86305000Y-76962500D03*
X86955000Y-76962500D03*
X86955000Y-72737500D03*
X86305000Y-72737500D03*
X85655000Y-72737500D03*
X85005000Y-72737500D03*
D17*
X84287500Y-66390000D03*
X82412500Y-66390000D03*
D12*
X78150000Y-65100000D03*
X78150000Y-66750000D03*
D15*
X86645000Y-79970000D03*
X84995000Y-79970000D03*
D18*
X75064800Y-77248200D03*
X75064800Y-80198200D03*
D19*
X74800000Y-42750000D03*
X74800000Y-46050000D03*
D20*
X81850000Y-43700000D03*
X81850000Y-45600000D03*
X83725000Y-44650000D03*
D15*
X97155000Y-79950000D03*
X95505000Y-79950000D03*
D21*
X77200000Y-85800000D03*
X77200000Y-87900000D03*
D12*
X78500000Y-43850000D03*
X78500000Y-45500000D03*
D22*
X63774200Y-49995800D03*
X65324200Y-49995800D03*
D23*
X63350000Y-54288400D03*
X65850000Y-54288400D03*
D16*
X83420000Y-74737500D03*
X83420000Y-76462500D03*
D12*
X81850000Y-38750000D03*
X81850000Y-40400000D03*
M02*
