G04 #@! TF.GenerationSoftware,KiCad,Pcbnew,(6.0.9)*
G04 #@! TF.CreationDate,2023-01-13T11:09:30+01:00*
G04 #@! TF.ProjectId,heating-controller,68656174-696e-4672-9d63-6f6e74726f6c,rev?*
G04 #@! TF.SameCoordinates,Original*
G04 #@! TF.FileFunction,Soldermask,Bot*
G04 #@! TF.FilePolarity,Negative*
%FSLAX46Y46*%
G04 Gerber Fmt 4.6, Leading zero omitted, Abs format (unit mm)*
G04 Created by KiCad (PCBNEW (6.0.9)) date 2023-01-13 11:09:30*
%MOMM*%
%LPD*%
G01*
G04 APERTURE LIST*
%ADD10R,1.700000X1.700000*%
%ADD11O,1.700000X1.700000*%
%ADD12R,2.000000X2.000000*%
%ADD13C,2.000000*%
%ADD14C,1.600000*%
%ADD15C,1.800000*%
%ADD16R,2.600000X2.600000*%
%ADD17C,2.600000*%
%ADD18C,2.200000*%
%ADD19R,1.800000X1.800000*%
%ADD20C,2.800000*%
%ADD21O,2.800000X2.800000*%
%ADD22C,1.400000*%
%ADD23O,1.400000X1.400000*%
%ADD24R,1.600000X1.600000*%
%ADD25O,1.600000X1.600000*%
G04 APERTURE END LIST*
D10*
X87850000Y-44650000D03*
D11*
X87850000Y-47190000D03*
D12*
X38524200Y-49950000D03*
D13*
X38524200Y-55030000D03*
X58844200Y-60110000D03*
X58844200Y-49950000D03*
D14*
X67978200Y-59241400D03*
X67978200Y-64241400D03*
D15*
X44448600Y-79656400D03*
X36948600Y-75656400D03*
D10*
X46830000Y-35700000D03*
D11*
X49370000Y-35700000D03*
X51910000Y-35700000D03*
X54450000Y-35700000D03*
X56990000Y-35700000D03*
X59530000Y-35700000D03*
X62070000Y-35700000D03*
X64610000Y-35700000D03*
X67150000Y-35700000D03*
X69690000Y-35700000D03*
X72230000Y-35700000D03*
X74770000Y-35700000D03*
D16*
X25720000Y-100550000D03*
D17*
X30800000Y-100550000D03*
X35880000Y-100550000D03*
X40960000Y-100550000D03*
X46040000Y-100550000D03*
X51120000Y-100550000D03*
X56200000Y-100550000D03*
D18*
X62364800Y-83500000D03*
X54744800Y-91120000D03*
X54744800Y-83500000D03*
D19*
X72524800Y-83500000D03*
D15*
X72524800Y-91120000D03*
D10*
X90000000Y-63600000D03*
D11*
X90000000Y-61060000D03*
D16*
X80750000Y-100550000D03*
D17*
X85830000Y-100550000D03*
X90910000Y-100550000D03*
X95990000Y-100550000D03*
D13*
X42200000Y-90000000D03*
X42200000Y-84920000D03*
X25306200Y-84641400D03*
X25306200Y-79561400D03*
D20*
X29150000Y-65100000D03*
D21*
X29150000Y-49860000D03*
D15*
X24121600Y-70805000D03*
X31621600Y-74805000D03*
D22*
X51950800Y-78062800D03*
D23*
X57030800Y-78062800D03*
D24*
X62466400Y-74786200D03*
D25*
X62466400Y-77326200D03*
X62466400Y-79866200D03*
X70086400Y-79866200D03*
X70086400Y-77326200D03*
X70086400Y-74786200D03*
D22*
X48902800Y-74608400D03*
D23*
X53982800Y-74608400D03*
M02*
