M48
; DRILL file {KiCad (6.0.9)} date Fri Jan 13 11:10:11 2023
; FORMAT={-:-/ absolute / metric / decimal}
; #@! TF.CreationDate,2023-01-13T11:10:11+01:00
; #@! TF.GenerationSoftware,Kicad,Pcbnew,(6.0.9)
; #@! TF.FileFunction,Plated,1,2,PTH
FMAT,2
METRIC
; #@! TA.AperFunction,Plated,PTH,ViaDrill
T1C0.400
; #@! TA.AperFunction,Plated,PTH,ComponentDrill
T2C0.700
; #@! TA.AperFunction,Plated,PTH,ComponentDrill
T3C0.800
; #@! TA.AperFunction,Plated,PTH,ComponentDrill
T4C1.000
; #@! TA.AperFunction,Plated,PTH,ComponentDrill
T5C1.100
; #@! TA.AperFunction,Plated,PTH,ComponentDrill
T6C1.200
; #@! TA.AperFunction,Plated,PTH,ComponentDrill
T7C1.300
; #@! TA.AperFunction,Plated,PTH,ComponentDrill
T8C1.400
%
G90
G05
T1
X53.8Y-30.4
X62.558Y-49.996
X66.226Y-49.996
X66.81Y-54.288
X74.8Y-48.6
X75.116Y-50.9
X75.116Y-61.172
X78.15Y-52.1
X78.15Y-61.832
X78.15Y-68.1
X78.15Y-74.1
X80.35Y-45.6
X82.15Y-85.1
X83.15Y-68.1
T2
X48.903Y-74.608
X51.951Y-78.063
X53.983Y-74.608
X57.031Y-78.063
T3
X24.122Y-70.805
X31.622Y-74.805
X36.949Y-75.656
X44.449Y-79.656
X62.466Y-74.786
X62.466Y-77.326
X62.466Y-79.866
X67.978Y-59.241
X67.978Y-64.241
X70.086Y-74.786
X70.086Y-77.326
X70.086Y-79.866
T4
X25.306Y-79.561
X25.306Y-84.641
X42.2Y-84.92
X42.2Y-90.0
X46.83Y-35.7
X49.37Y-35.7
X51.91Y-35.7
X54.45Y-35.7
X56.99Y-35.7
X59.53Y-35.7
X62.07Y-35.7
X64.61Y-35.7
X67.15Y-35.7
X69.69Y-35.7
X72.23Y-35.7
X72.525Y-83.5
X72.525Y-91.12
X74.77Y-35.7
X87.85Y-44.65
X87.85Y-47.19
X90.0Y-61.06
X90.0Y-63.6
T5
X38.524Y-49.95
X38.524Y-55.03
X58.844Y-49.95
X58.844Y-60.11
T6
X54.745Y-83.5
X54.745Y-91.12
X62.365Y-83.5
T7
X25.72Y-100.55
X30.8Y-100.55
X35.88Y-100.55
X40.96Y-100.55
X46.04Y-100.55
X51.12Y-100.55
X56.2Y-100.55
X80.75Y-100.55
X85.83Y-100.55
X90.91Y-100.55
X95.99Y-100.55
T8
X29.15Y-49.86
X29.15Y-65.1
T0
M30
