G04 #@! TF.GenerationSoftware,KiCad,Pcbnew,(6.0.9)*
G04 #@! TF.CreationDate,2023-01-13T11:09:30+01:00*
G04 #@! TF.ProjectId,heating-controller,68656174-696e-4672-9d63-6f6e74726f6c,rev?*
G04 #@! TF.SameCoordinates,Original*
G04 #@! TF.FileFunction,Copper,L1,Top*
G04 #@! TF.FilePolarity,Positive*
%FSLAX46Y46*%
G04 Gerber Fmt 4.6, Leading zero omitted, Abs format (unit mm)*
G04 Created by KiCad (PCBNEW (6.0.9)) date 2023-01-13 11:09:30*
%MOMM*%
%LPD*%
G01*
G04 APERTURE LIST*
G04 Aperture macros list*
%AMRoundRect*
0 Rectangle with rounded corners*
0 $1 Rounding radius*
0 $2 $3 $4 $5 $6 $7 $8 $9 X,Y pos of 4 corners*
0 Add a 4 corners polygon primitive as box body*
4,1,4,$2,$3,$4,$5,$6,$7,$8,$9,$2,$3,0*
0 Add four circle primitives for the rounded corners*
1,1,$1+$1,$2,$3*
1,1,$1+$1,$4,$5*
1,1,$1+$1,$6,$7*
1,1,$1+$1,$8,$9*
0 Add four rect primitives between the rounded corners*
20,1,$1+$1,$2,$3,$4,$5,0*
20,1,$1+$1,$4,$5,$6,$7,0*
20,1,$1+$1,$6,$7,$8,$9,0*
20,1,$1+$1,$8,$9,$2,$3,0*%
G04 Aperture macros list end*
G04 #@! TA.AperFunction,SMDPad,CuDef*
%ADD10RoundRect,0.200000X0.200000X0.275000X-0.200000X0.275000X-0.200000X-0.275000X0.200000X-0.275000X0*%
G04 #@! TD*
G04 #@! TA.AperFunction,SMDPad,CuDef*
%ADD11RoundRect,0.200000X-0.275000X0.200000X-0.275000X-0.200000X0.275000X-0.200000X0.275000X0.200000X0*%
G04 #@! TD*
G04 #@! TA.AperFunction,SMDPad,CuDef*
%ADD12RoundRect,0.150000X-0.587500X-0.150000X0.587500X-0.150000X0.587500X0.150000X-0.587500X0.150000X0*%
G04 #@! TD*
G04 #@! TA.AperFunction,ComponentPad*
%ADD13R,1.700000X1.700000*%
G04 #@! TD*
G04 #@! TA.AperFunction,ComponentPad*
%ADD14O,1.700000X1.700000*%
G04 #@! TD*
G04 #@! TA.AperFunction,SMDPad,CuDef*
%ADD15RoundRect,0.200000X-0.200000X-0.275000X0.200000X-0.275000X0.200000X0.275000X-0.200000X0.275000X0*%
G04 #@! TD*
G04 #@! TA.AperFunction,ComponentPad*
%ADD16R,2.000000X2.000000*%
G04 #@! TD*
G04 #@! TA.AperFunction,ComponentPad*
%ADD17C,2.000000*%
G04 #@! TD*
G04 #@! TA.AperFunction,ComponentPad*
%ADD18C,1.600000*%
G04 #@! TD*
G04 #@! TA.AperFunction,ComponentPad*
%ADD19C,1.800000*%
G04 #@! TD*
G04 #@! TA.AperFunction,ComponentPad*
%ADD20R,2.600000X2.600000*%
G04 #@! TD*
G04 #@! TA.AperFunction,ComponentPad*
%ADD21C,2.600000*%
G04 #@! TD*
G04 #@! TA.AperFunction,SMDPad,CuDef*
%ADD22RoundRect,0.243750X0.456250X-0.243750X0.456250X0.243750X-0.456250X0.243750X-0.456250X-0.243750X0*%
G04 #@! TD*
G04 #@! TA.AperFunction,SMDPad,CuDef*
%ADD23RoundRect,0.250000X-0.650000X0.325000X-0.650000X-0.325000X0.650000X-0.325000X0.650000X0.325000X0*%
G04 #@! TD*
G04 #@! TA.AperFunction,SMDPad,CuDef*
%ADD24RoundRect,0.250000X-0.250000X-0.475000X0.250000X-0.475000X0.250000X0.475000X-0.250000X0.475000X0*%
G04 #@! TD*
G04 #@! TA.AperFunction,SMDPad,CuDef*
%ADD25R,0.450000X0.600000*%
G04 #@! TD*
G04 #@! TA.AperFunction,ComponentPad*
%ADD26C,2.200000*%
G04 #@! TD*
G04 #@! TA.AperFunction,ComponentPad*
%ADD27R,1.800000X1.800000*%
G04 #@! TD*
G04 #@! TA.AperFunction,SMDPad,CuDef*
%ADD28RoundRect,0.225000X-0.225000X-0.250000X0.225000X-0.250000X0.225000X0.250000X-0.225000X0.250000X0*%
G04 #@! TD*
G04 #@! TA.AperFunction,SMDPad,CuDef*
%ADD29R,1.000000X1.000000*%
G04 #@! TD*
G04 #@! TA.AperFunction,ComponentPad*
%ADD30C,2.800000*%
G04 #@! TD*
G04 #@! TA.AperFunction,ComponentPad*
%ADD31O,2.800000X2.800000*%
G04 #@! TD*
G04 #@! TA.AperFunction,ComponentPad*
%ADD32C,1.400000*%
G04 #@! TD*
G04 #@! TA.AperFunction,ComponentPad*
%ADD33O,1.400000X1.400000*%
G04 #@! TD*
G04 #@! TA.AperFunction,SMDPad,CuDef*
%ADD34RoundRect,0.250000X0.250000X0.475000X-0.250000X0.475000X-0.250000X-0.475000X0.250000X-0.475000X0*%
G04 #@! TD*
G04 #@! TA.AperFunction,ComponentPad*
%ADD35R,1.600000X1.600000*%
G04 #@! TD*
G04 #@! TA.AperFunction,ComponentPad*
%ADD36O,1.600000X1.600000*%
G04 #@! TD*
G04 #@! TA.AperFunction,SMDPad,CuDef*
%ADD37RoundRect,0.150000X-0.150000X0.587500X-0.150000X-0.587500X0.150000X-0.587500X0.150000X0.587500X0*%
G04 #@! TD*
G04 #@! TA.AperFunction,ViaPad*
%ADD38C,0.800000*%
G04 #@! TD*
G04 #@! TA.AperFunction,Conductor*
%ADD39C,0.500000*%
G04 #@! TD*
G04 #@! TA.AperFunction,Conductor*
%ADD40C,1.000000*%
G04 #@! TD*
G04 #@! TA.AperFunction,Conductor*
%ADD41C,0.250000*%
G04 #@! TD*
G04 #@! TA.AperFunction,Conductor*
%ADD42C,1.500000*%
G04 #@! TD*
G04 APERTURE END LIST*
D10*
X82950000Y-49700000D03*
X81300000Y-49700000D03*
D11*
X78500000Y-43850000D03*
X78500000Y-45500000D03*
X81850000Y-38750000D03*
X81850000Y-40400000D03*
D12*
X81850000Y-43700000D03*
X81850000Y-45600000D03*
X83725000Y-44650000D03*
D13*
X87850000Y-44650000D03*
D14*
X87850000Y-47190000D03*
D15*
X46850000Y-27600000D03*
X48500000Y-27600000D03*
D16*
X38524200Y-49950000D03*
D17*
X38524200Y-55030000D03*
X58844200Y-60110000D03*
X58844200Y-49950000D03*
D18*
X67978200Y-59241400D03*
X67978200Y-64241400D03*
D10*
X94225000Y-59100000D03*
X92575000Y-59100000D03*
D15*
X46850000Y-30400000D03*
X48500000Y-30400000D03*
D10*
X86600000Y-61000000D03*
X84950000Y-61000000D03*
D19*
X44448600Y-79656400D03*
X36948600Y-75656400D03*
D11*
X78150000Y-70275000D03*
X78150000Y-71925000D03*
D13*
X46830000Y-35700000D03*
D14*
X49370000Y-35700000D03*
X51910000Y-35700000D03*
X54450000Y-35700000D03*
X56990000Y-35700000D03*
X59530000Y-35700000D03*
X62070000Y-35700000D03*
X64610000Y-35700000D03*
X67150000Y-35700000D03*
X69690000Y-35700000D03*
X72230000Y-35700000D03*
X74770000Y-35700000D03*
D20*
X25720000Y-100550000D03*
D21*
X30800000Y-100550000D03*
X35880000Y-100550000D03*
X40960000Y-100550000D03*
X46040000Y-100550000D03*
X51120000Y-100550000D03*
X56200000Y-100550000D03*
D22*
X95150000Y-62975000D03*
X95150000Y-61100000D03*
D11*
X78150000Y-65100000D03*
X78150000Y-66750000D03*
D23*
X75064800Y-77248200D03*
X75064800Y-80198200D03*
D24*
X50650000Y-30400000D03*
X52550000Y-30400000D03*
D25*
X74800000Y-43350000D03*
X74800000Y-45450000D03*
D26*
X62364800Y-83500000D03*
X54744800Y-91120000D03*
X54744800Y-83500000D03*
D27*
X72524800Y-83500000D03*
D19*
X72524800Y-91120000D03*
D15*
X46800000Y-38950000D03*
X48450000Y-38950000D03*
D25*
X77200000Y-85800000D03*
X77200000Y-87900000D03*
D13*
X90000000Y-63600000D03*
D14*
X90000000Y-61060000D03*
D28*
X63774200Y-49995800D03*
X65324200Y-49995800D03*
D20*
X80750000Y-100550000D03*
D21*
X85830000Y-100550000D03*
X90910000Y-100550000D03*
X95990000Y-100550000D03*
D29*
X63350000Y-54288400D03*
X65850000Y-54288400D03*
D17*
X42200000Y-90000000D03*
X42200000Y-84920000D03*
X25306200Y-84641400D03*
X25306200Y-79561400D03*
D30*
X29150000Y-65100000D03*
D31*
X29150000Y-49860000D03*
D19*
X24121600Y-70805000D03*
X31621600Y-74805000D03*
D32*
X51950800Y-78062800D03*
D33*
X57030800Y-78062800D03*
D34*
X68200000Y-46600000D03*
X66300000Y-46600000D03*
D35*
X62466400Y-74786200D03*
D36*
X62466400Y-77326200D03*
X62466400Y-79866200D03*
X70086400Y-79866200D03*
X70086400Y-77326200D03*
X70086400Y-74786200D03*
D37*
X84100000Y-87225000D03*
X82200000Y-87225000D03*
X83150000Y-89100000D03*
D32*
X48902800Y-74608400D03*
D33*
X53982800Y-74608400D03*
D38*
X80350000Y-45600000D03*
X62558000Y-49995800D03*
X74800000Y-48600000D03*
X66225600Y-49995800D03*
X78150000Y-74100000D03*
X53800000Y-30400000D03*
X66809800Y-54288400D03*
X82150000Y-85100000D03*
X75115600Y-50900000D03*
X75115600Y-61171800D03*
X78150000Y-61832200D03*
X78150000Y-52100000D03*
X83150000Y-68100000D03*
X78150000Y-68100000D03*
D39*
X80350000Y-45600000D02*
X81850000Y-45600000D01*
X78500000Y-45500000D02*
X79350000Y-45500000D01*
X79350000Y-43850000D02*
X78500000Y-43850000D01*
X79500000Y-43700000D02*
X79350000Y-43850000D01*
X79450000Y-45600000D02*
X80350000Y-45600000D01*
X79350000Y-45500000D02*
X79450000Y-45600000D01*
X81850000Y-43700000D02*
X79500000Y-43700000D01*
X80200000Y-48600000D02*
X74800000Y-48600000D01*
X81300000Y-49700000D02*
X80200000Y-48600000D01*
X87850000Y-49400000D02*
X87850000Y-47190000D01*
X87550000Y-49700000D02*
X87850000Y-49400000D01*
X82950000Y-49700000D02*
X87550000Y-49700000D01*
X83725000Y-44650000D02*
X87850000Y-44650000D01*
X81850000Y-40400000D02*
X81850000Y-43700000D01*
X81850000Y-33000000D02*
X81850000Y-38750000D01*
X60010000Y-32250000D02*
X81100000Y-32250000D01*
X59530000Y-32730000D02*
X60010000Y-32250000D01*
X81100000Y-32250000D02*
X81850000Y-33000000D01*
X59530000Y-35700000D02*
X59530000Y-32730000D01*
X77242500Y-83242500D02*
X72782300Y-83242500D01*
X77242500Y-83242500D02*
X77242500Y-85757500D01*
X81150000Y-82050000D02*
X79957500Y-83242500D01*
X79957500Y-83242500D02*
X77242500Y-83242500D01*
D40*
X62542600Y-49980400D02*
X62558000Y-49995800D01*
X74800000Y-48600000D02*
X74800000Y-45450000D01*
D39*
X81150000Y-59100000D02*
X84900000Y-59100000D01*
D40*
X62542600Y-58342600D02*
X62542600Y-52542600D01*
X63441400Y-59241400D02*
X62542600Y-58342600D01*
X62542600Y-49980400D02*
X62542600Y-52542600D01*
D39*
X72782300Y-83242500D02*
X72524800Y-83500000D01*
D40*
X62542600Y-52542600D02*
X62542600Y-53856600D01*
D39*
X81150000Y-59100000D02*
X81150000Y-82050000D01*
X81150000Y-59100000D02*
X68119600Y-59100000D01*
D40*
X62558000Y-49995800D02*
X63774200Y-49995800D01*
D39*
X84900000Y-59100000D02*
X92575000Y-59100000D01*
D40*
X67978200Y-59241400D02*
X63441400Y-59241400D01*
D39*
X68119600Y-59100000D02*
X67978200Y-59241400D01*
D40*
X58844200Y-49950000D02*
X62512200Y-49950000D01*
D39*
X84900000Y-59100000D02*
X84900000Y-60950000D01*
X84900000Y-60950000D02*
X84950000Y-61000000D01*
D40*
X65850000Y-54288400D02*
X66809800Y-54288400D01*
D39*
X52550000Y-30400000D02*
X53800000Y-30400000D01*
X74732800Y-79866200D02*
X70086400Y-79866200D01*
D41*
X66225600Y-46674400D02*
X66300000Y-46600000D01*
X65324200Y-49995800D02*
X66225600Y-49995800D01*
D39*
X82200000Y-87225000D02*
X82200000Y-85150000D01*
X78150000Y-71925000D02*
X78150000Y-74100000D01*
D41*
X82200000Y-85150000D02*
X82150000Y-85100000D01*
X75064800Y-80198200D02*
X74732800Y-79866200D01*
D39*
X66225600Y-49995800D02*
X66225600Y-46674400D01*
D41*
X74986800Y-77326200D02*
X75064800Y-77248200D01*
D39*
X55600000Y-27600000D02*
X48500000Y-27600000D01*
X71600000Y-38600000D02*
X58000000Y-38600000D01*
X56990000Y-35700000D02*
X56990000Y-28990000D01*
X70086400Y-77326200D02*
X74986800Y-77326200D01*
X56990000Y-37590000D02*
X56990000Y-35700000D01*
X75063800Y-69045800D02*
X75063800Y-61223600D01*
D41*
X75063800Y-77247200D02*
X75064800Y-77248200D01*
D39*
X72825000Y-48609400D02*
X72825000Y-39825000D01*
X75063800Y-69045800D02*
X75063800Y-77247200D01*
X58000000Y-38600000D02*
X56990000Y-37590000D01*
X56990000Y-28990000D02*
X55600000Y-27600000D01*
X75115600Y-50900000D02*
X72825000Y-48609400D01*
X72825000Y-39825000D02*
X71600000Y-38600000D01*
D41*
X75063800Y-61223600D02*
X75115600Y-61171800D01*
D40*
X74800000Y-43350000D02*
X74800000Y-35730000D01*
D41*
X74800000Y-35730000D02*
X74770000Y-35700000D01*
X46830000Y-38920000D02*
X46800000Y-38950000D01*
D39*
X46830000Y-35700000D02*
X46830000Y-38920000D01*
X46850000Y-30400000D02*
X46850000Y-27600000D01*
X46830000Y-35700000D02*
X46830000Y-30420000D01*
X46830000Y-30420000D02*
X46850000Y-30400000D01*
X49250000Y-38950000D02*
X49250000Y-39050000D01*
X68200000Y-46600000D02*
X69200000Y-46600000D01*
D41*
X49370000Y-38830000D02*
X49250000Y-38950000D01*
D39*
X69400000Y-42600000D02*
X69400000Y-46400000D01*
X51800000Y-41600000D02*
X68400000Y-41600000D01*
X69400000Y-46400000D02*
X69400000Y-50800000D01*
X68400000Y-41600000D02*
X69400000Y-42600000D01*
X69400000Y-50800000D02*
X73800000Y-55200000D01*
X49370000Y-35700000D02*
X49370000Y-38830000D01*
X96800000Y-55200000D02*
X98400000Y-56800000D01*
X94200000Y-95000000D02*
X81800000Y-95000000D01*
X49250000Y-39050000D02*
X51800000Y-41600000D01*
X98400000Y-90800000D02*
X94200000Y-95000000D01*
X80750000Y-96050000D02*
X80750000Y-100550000D01*
X81800000Y-95000000D02*
X80750000Y-96050000D01*
X69200000Y-46600000D02*
X69400000Y-46400000D01*
X49250000Y-38950000D02*
X48450000Y-38950000D01*
X73800000Y-55200000D02*
X96800000Y-55200000D01*
X98400000Y-56800000D02*
X98400000Y-90800000D01*
X50650000Y-30400000D02*
X50650000Y-32250000D01*
X51910000Y-39110000D02*
X53350000Y-40550000D01*
X48500000Y-30400000D02*
X50650000Y-30400000D01*
X50650000Y-32250000D02*
X51910000Y-33510000D01*
X70550000Y-41550000D02*
X70550000Y-49850000D01*
X99600000Y-55750000D02*
X99600000Y-91860000D01*
X53350000Y-40550000D02*
X69550000Y-40550000D01*
X97750000Y-53900000D02*
X99600000Y-55750000D01*
X70550000Y-49850000D02*
X74600000Y-53900000D01*
X99600000Y-91860000D02*
X90910000Y-100550000D01*
X69550000Y-40550000D02*
X70550000Y-41550000D01*
X51910000Y-35700000D02*
X51910000Y-39110000D01*
X74600000Y-53900000D02*
X97750000Y-53900000D01*
X51910000Y-33510000D02*
X51910000Y-35700000D01*
X71750000Y-40750000D02*
X70550000Y-39550000D01*
X71750000Y-49050000D02*
X71750000Y-40750000D01*
X56150000Y-39550000D02*
X54450000Y-37850000D01*
X78150000Y-61832200D02*
X78150000Y-65100000D01*
X78150000Y-52100000D02*
X74800000Y-52100000D01*
X70550000Y-39550000D02*
X56150000Y-39550000D01*
X54450000Y-37850000D02*
X54450000Y-35700000D01*
X74800000Y-52100000D02*
X71750000Y-49050000D01*
X83150000Y-89100000D02*
X77100000Y-89100000D01*
X75487300Y-89100000D02*
X73467300Y-91120000D01*
X90000000Y-63600000D02*
X94525000Y-63600000D01*
X73467300Y-91120000D02*
X72524800Y-91120000D01*
X77200000Y-89100000D02*
X75487300Y-89100000D01*
X77200000Y-88000000D02*
X77200000Y-89100000D01*
X90000000Y-88000000D02*
X90000000Y-63600000D01*
X83150000Y-89100000D02*
X88900000Y-89100000D01*
X94525000Y-63600000D02*
X95150000Y-62975000D01*
X88900000Y-89100000D02*
X90000000Y-88000000D01*
X95150000Y-59150000D02*
X95100000Y-59100000D01*
X95150000Y-59150000D02*
X95150000Y-61100000D01*
X95100000Y-59100000D02*
X94225000Y-59100000D01*
D42*
X62364800Y-87035200D02*
X62364800Y-83500000D01*
X46040000Y-95160000D02*
X53000000Y-88200000D01*
X46040000Y-100550000D02*
X46040000Y-95160000D01*
X61200000Y-88200000D02*
X62364800Y-87035200D01*
X53000000Y-88200000D02*
X61200000Y-88200000D01*
D39*
X84100000Y-87225000D02*
X84100000Y-69050000D01*
X78150000Y-66750000D02*
X78150000Y-70275000D01*
X84100000Y-69050000D02*
X83150000Y-68100000D01*
D41*
X89940000Y-61000000D02*
X90000000Y-61060000D01*
D39*
X86600000Y-61000000D02*
X89940000Y-61000000D01*
M02*
