G04 #@! TF.GenerationSoftware,KiCad,Pcbnew,(6.0.9)*
G04 #@! TF.CreationDate,2023-01-13T11:09:30+01:00*
G04 #@! TF.ProjectId,heating-controller,68656174-696e-4672-9d63-6f6e74726f6c,rev?*
G04 #@! TF.SameCoordinates,Original*
G04 #@! TF.FileFunction,Paste,Top*
G04 #@! TF.FilePolarity,Positive*
%FSLAX46Y46*%
G04 Gerber Fmt 4.6, Leading zero omitted, Abs format (unit mm)*
G04 Created by KiCad (PCBNEW (6.0.9)) date 2023-01-13 11:09:30*
%MOMM*%
%LPD*%
G01*
G04 APERTURE LIST*
G04 Aperture macros list*
%AMRoundRect*
0 Rectangle with rounded corners*
0 $1 Rounding radius*
0 $2 $3 $4 $5 $6 $7 $8 $9 X,Y pos of 4 corners*
0 Add a 4 corners polygon primitive as box body*
4,1,4,$2,$3,$4,$5,$6,$7,$8,$9,$2,$3,0*
0 Add four circle primitives for the rounded corners*
1,1,$1+$1,$2,$3*
1,1,$1+$1,$4,$5*
1,1,$1+$1,$6,$7*
1,1,$1+$1,$8,$9*
0 Add four rect primitives between the rounded corners*
20,1,$1+$1,$2,$3,$4,$5,0*
20,1,$1+$1,$4,$5,$6,$7,0*
20,1,$1+$1,$6,$7,$8,$9,0*
20,1,$1+$1,$8,$9,$2,$3,0*%
G04 Aperture macros list end*
%ADD10RoundRect,0.200000X0.200000X0.275000X-0.200000X0.275000X-0.200000X-0.275000X0.200000X-0.275000X0*%
%ADD11RoundRect,0.200000X-0.275000X0.200000X-0.275000X-0.200000X0.275000X-0.200000X0.275000X0.200000X0*%
%ADD12RoundRect,0.150000X-0.587500X-0.150000X0.587500X-0.150000X0.587500X0.150000X-0.587500X0.150000X0*%
%ADD13RoundRect,0.200000X-0.200000X-0.275000X0.200000X-0.275000X0.200000X0.275000X-0.200000X0.275000X0*%
%ADD14RoundRect,0.243750X0.456250X-0.243750X0.456250X0.243750X-0.456250X0.243750X-0.456250X-0.243750X0*%
%ADD15RoundRect,0.250000X-0.650000X0.325000X-0.650000X-0.325000X0.650000X-0.325000X0.650000X0.325000X0*%
%ADD16RoundRect,0.250000X-0.250000X-0.475000X0.250000X-0.475000X0.250000X0.475000X-0.250000X0.475000X0*%
%ADD17R,0.450000X0.600000*%
%ADD18RoundRect,0.225000X-0.225000X-0.250000X0.225000X-0.250000X0.225000X0.250000X-0.225000X0.250000X0*%
%ADD19R,1.000000X1.000000*%
%ADD20RoundRect,0.250000X0.250000X0.475000X-0.250000X0.475000X-0.250000X-0.475000X0.250000X-0.475000X0*%
%ADD21RoundRect,0.150000X-0.150000X0.587500X-0.150000X-0.587500X0.150000X-0.587500X0.150000X0.587500X0*%
G04 APERTURE END LIST*
D10*
X82950000Y-49700000D03*
X81300000Y-49700000D03*
D11*
X78500000Y-43850000D03*
X78500000Y-45500000D03*
X81850000Y-38750000D03*
X81850000Y-40400000D03*
D12*
X81850000Y-43700000D03*
X81850000Y-45600000D03*
X83725000Y-44650000D03*
D13*
X46850000Y-27600000D03*
X48500000Y-27600000D03*
D10*
X94225000Y-59100000D03*
X92575000Y-59100000D03*
D13*
X46850000Y-30400000D03*
X48500000Y-30400000D03*
D10*
X86600000Y-61000000D03*
X84950000Y-61000000D03*
D11*
X78150000Y-70275000D03*
X78150000Y-71925000D03*
D14*
X95150000Y-62975000D03*
X95150000Y-61100000D03*
D11*
X78150000Y-65100000D03*
X78150000Y-66750000D03*
D15*
X75064800Y-77248200D03*
X75064800Y-80198200D03*
D16*
X50650000Y-30400000D03*
X52550000Y-30400000D03*
D17*
X74800000Y-43350000D03*
X74800000Y-45450000D03*
D13*
X46800000Y-38950000D03*
X48450000Y-38950000D03*
D17*
X77200000Y-85800000D03*
X77200000Y-87900000D03*
D18*
X63774200Y-49995800D03*
X65324200Y-49995800D03*
D19*
X63350000Y-54288400D03*
X65850000Y-54288400D03*
D20*
X68200000Y-46600000D03*
X66300000Y-46600000D03*
D21*
X84100000Y-87225000D03*
X82200000Y-87225000D03*
X83150000Y-89100000D03*
M02*
